<svg xmlns="http://www.w3.org/2000/svg" width="1200" height="630" viewBox="0 0 1200 630" role="img" aria-labelledby="title desc">
  <title id="title">Learning loops across disciplines</title>
  <desc id="desc">Creative, technical and commercial learning loops</desc>
  
  <defs>
    <radialGradient id="glow" cx="42%" cy="72%" r="80%">
      <stop offset="0%" stop-color="#3977ff" stop-opacity="0.42"/>
      <stop offset="48%" stop-color="#eee9df" stop-opacity="0.9"/>
      <stop offset="100%" stop-color="#eee9df"/>
    </radialGradient>
    <linearGradient id="panel" x1="0" y1="0" x2="1" y2="1">
      <stop offset="0%" stop-color="#ffffff" stop-opacity="0.88"/>
      <stop offset="100%" stop-color="#fbfaf7" stop-opacity="0.64"/>
    </linearGradient>
    <filter id="shadow" x="-30%" y="-30%" width="160%" height="160%">
      <feDropShadow dx="0" dy="28" stdDeviation="30" flood-color="#0b0b09" flood-opacity="0.17"/>
    </filter>
    
    <filter id="grain">
      <feTurbulence type="fractalNoise" baseFrequency="0.81" numOctaves="3" stitchTiles="stitch"/>
      <feColorMatrix type="saturate" values="0"/>
      <feComponentTransfer><feFuncA type="table" tableValues="0 0.056999999999999995"/></feComponentTransfer>
    </filter>
  </defs>
  
      <rect width="1200" height="630" fill="#eee9df"/>
      <path d="M0 0V630 M55 0V630 M110 0V630 M165 0V630 M220 0V630 M275 0V630 M330 0V630 M385 0V630 M440 0V630 M495 0V630 M550 0V630 M605 0V630 M660 0V630 M715 0V630 M770 0V630 M825 0V630 M880 0V630 M935 0V630 M990 0V630 M1045 0V630 M1100 0V630 M1155 0V630 M0 0H1200 M0 55H1200 M0 110H1200 M0 165H1200 M0 220H1200 M0 275H1200 M0 330H1200 M0 385H1200 M0 440H1200 M0 495H1200 M0 550H1200 M0 605H1200" stroke="#c8c3b7" stroke-width="1" opacity="0.46"/>
      <rect width="1200" height="630" fill="url(#glow)" opacity="0.56"/>
      <rect width="1200" height="630" filter="url(#grain)" opacity="0.75"/>
  
    <rect x="132" y="134" width="936" height="312" rx="36" fill="url(#panel)" stroke="#c8c3b7" filter="url(#shadow)"/>
    <circle cx="308" cy="290" r="92" fill="none" stroke="#c69386" stroke-width="8"/>
    <path d="M258 290 H358 M308 240 V340" stroke="#3977ff" stroke-width="7"/>
    <rect x="500" y="210" width="420" height="28" rx="14" fill="#0b0b09" opacity="0.82"/>
    <rect x="500" y="278" width="300" height="28" rx="14" fill="#c69386" opacity="0.82"/>
    <rect x="500" y="346" width="360" height="28" rx="14" fill="#3977ff" opacity="0.82"/>
  
  
    <g transform="translate(990 486)">
      <rect width="110" height="74" rx="0" fill="#fbfaf7" stroke="#c8c3b7" stroke-width="2"/>
      <text x="22" y="48" font-family="Arial, Helvetica, sans-serif" font-size="28" font-weight="800" fill="#c69386">MSG</text>
    </g>
</svg>
