<svg xmlns="http://www.w3.org/2000/svg" width="1200" height="630" viewBox="0 0 1200 630" role="img" aria-labelledby="title desc">
  <title id="title">Machine learning becomes visible</title>
  <desc id="desc">AI moving from research circles into public conversation</desc>
  
  <defs>
    <radialGradient id="glow" cx="68%" cy="-18%" r="80%">
      <stop offset="0%" stop-color="#7ccf78" stop-opacity="0.42"/>
      <stop offset="48%" stop-color="#f2efe6" stop-opacity="0.9"/>
      <stop offset="100%" stop-color="#f2efe6"/>
    </radialGradient>
    <linearGradient id="panel" x1="0" y1="0" x2="1" y2="1">
      <stop offset="0%" stop-color="#ffffff" stop-opacity="0.88"/>
      <stop offset="100%" stop-color="#fbfaf7" stop-opacity="0.64"/>
    </linearGradient>
    <filter id="shadow" x="-30%" y="-30%" width="160%" height="160%">
      <feDropShadow dx="0" dy="28" stdDeviation="30" flood-color="#0b0b09" flood-opacity="0.17"/>
    </filter>
    
    <filter id="grain">
      <feTurbulence type="fractalNoise" baseFrequency="0.77" numOctaves="3" stitchTiles="stitch"/>
      <feColorMatrix type="saturate" values="0"/>
      <feComponentTransfer><feFuncA type="table" tableValues="0 0.056999999999999995"/></feComponentTransfer>
    </filter>
  </defs>
  
    <rect width="1200" height="630" fill="#f2efe6"/>
    <rect width="1200" height="630" fill="url(#glow)" opacity="0.74"/>
    <rect width="1200" height="630" filter="url(#grain)" opacity="0.66"/>
  
      <rect x="92" y="78" width="1016" height="474" rx="34" fill="#fbfaf7" filter="url(#shadow)"/>
      <rect x="150" y="126" width="538" height="360" fill="#d7aa65"/>
      <path d="M198 166 H638 M198 166 V460" stroke="#2e2114" stroke-width="2" opacity="0.72"/><path d="M198 208 H638 M256 166 V460" stroke="#2e2114" stroke-width="2" opacity="0.72"/><path d="M198 250 H638 M314 166 V460" stroke="#2e2114" stroke-width="2" opacity="0.72"/><path d="M198 292 H638 M372 166 V460" stroke="#2e2114" stroke-width="2" opacity="0.72"/><path d="M198 334 H638 M430 166 V460" stroke="#2e2114" stroke-width="2" opacity="0.72"/><path d="M198 376 H638 M488 166 V460" stroke="#2e2114" stroke-width="2" opacity="0.72"/><path d="M198 418 H638 M546 166 V460" stroke="#2e2114" stroke-width="2" opacity="0.72"/><path d="M198 460 H638 M604 166 V460" stroke="#2e2114" stroke-width="2" opacity="0.72"/>
      <circle cx="256" cy="208" r="20" fill="#0b0b09" stroke="#0b0b09" stroke-width="3"/><circle cx="546" cy="166" r="20" fill="#fbfaf7" stroke="#0b0b09" stroke-width="3"/><circle cx="372" cy="460" r="20" fill="#0b0b09" stroke="#0b0b09" stroke-width="3"/><circle cx="198" cy="418" r="20" fill="#fbfaf7" stroke="#0b0b09" stroke-width="3"/><circle cx="488" cy="376" r="20" fill="#0b0b09" stroke="#0b0b09" stroke-width="3"/><circle cx="314" cy="334" r="20" fill="#fbfaf7" stroke="#0b0b09" stroke-width="3"/><circle cx="604" cy="292" r="20" fill="#0b0b09" stroke="#0b0b09" stroke-width="3"/><circle cx="430" cy="250" r="20" fill="#fbfaf7" stroke="#0b0b09" stroke-width="3"/><circle cx="256" cy="208" r="20" fill="#0b0b09" stroke="#0b0b09" stroke-width="3"/><circle cx="546" cy="166" r="20" fill="#fbfaf7" stroke="#0b0b09" stroke-width="3"/><circle cx="372" cy="460" r="20" fill="#0b0b09" stroke="#0b0b09" stroke-width="3"/><circle cx="198" cy="418" r="20" fill="#fbfaf7" stroke="#0b0b09" stroke-width="3"/><circle cx="488" cy="376" r="20" fill="#0b0b09" stroke="#0b0b09" stroke-width="3"/><circle cx="314" cy="334" r="20" fill="#fbfaf7" stroke="#0b0b09" stroke-width="3"/>
      <path d="M764 190 C886 112 968 204 1030 154 M744 356 C850 248 944 458 1046 330" stroke="#7ccf78" stroke-width="9" fill="none"/>
    
  
    <g transform="translate(990 486)">
      <rect width="110" height="74" rx="0" fill="#fbfaf7" stroke="#c8c3b7" stroke-width="2"/>
      <text x="22" y="48" font-family="Arial, Helvetica, sans-serif" font-size="28" font-weight="800" fill="#0b0b09">MSG</text>
    </g>
</svg>
