<svg xmlns="http://www.w3.org/2000/svg" width="1200" height="630" viewBox="0 0 1200 630" role="img" aria-labelledby="title desc">
  <title id="title">Research milestones and product ambition</title>
  <desc id="desc">How breakthroughs reshape what builders think is possible</desc>
  
  <defs>
    <radialGradient id="glow" cx="51%" cy="39%" r="80%">
      <stop offset="0%" stop-color="#3977ff" stop-opacity="0.42"/>
      <stop offset="48%" stop-color="#eee9df" stop-opacity="0.9"/>
      <stop offset="100%" stop-color="#eee9df"/>
    </radialGradient>
    <linearGradient id="panel" x1="0" y1="0" x2="1" y2="1">
      <stop offset="0%" stop-color="#ffffff" stop-opacity="0.88"/>
      <stop offset="100%" stop-color="#fbfaf7" stop-opacity="0.64"/>
    </linearGradient>
    <filter id="shadow" x="-30%" y="-30%" width="160%" height="160%">
      <feDropShadow dx="0" dy="28" stdDeviation="30" flood-color="#0b0b09" flood-opacity="0.17"/>
    </filter>
    
    <filter id="grain">
      <feTurbulence type="fractalNoise" baseFrequency="0.8" numOctaves="3" stitchTiles="stitch"/>
      <feColorMatrix type="saturate" values="0"/>
      <feComponentTransfer><feFuncA type="table" tableValues="0 0.045"/></feComponentTransfer>
    </filter>
  </defs>
  
      <rect width="1200" height="630" fill="#eee9df"/>
      <path d="M0 0V630 M64 0V630 M128 0V630 M192 0V630 M256 0V630 M320 0V630 M384 0V630 M448 0V630 M512 0V630 M576 0V630 M640 0V630 M704 0V630 M768 0V630 M832 0V630 M896 0V630 M960 0V630 M1024 0V630 M1088 0V630 M1152 0V630 M0 0H1200 M0 64H1200 M0 128H1200 M0 192H1200 M0 256H1200 M0 320H1200 M0 384H1200 M0 448H1200 M0 512H1200 M0 576H1200" stroke="#c8c3b7" stroke-width="1" opacity="0.46"/>
      <rect width="1200" height="630" fill="url(#glow)" opacity="0.56"/>
      <rect width="1200" height="630" filter="url(#grain)" opacity="0.75"/>
  
    <rect x="132" y="134" width="936" height="312" rx="36" fill="url(#panel)" stroke="#c8c3b7" filter="url(#shadow)"/>
    <circle cx="308" cy="290" r="92" fill="none" stroke="#c69386" stroke-width="8"/>
    <path d="M258 290 H358 M308 240 V340" stroke="#3977ff" stroke-width="7"/>
    <rect x="500" y="210" width="420" height="28" rx="14" fill="#0b0b09" opacity="0.82"/>
    <rect x="500" y="278" width="300" height="28" rx="14" fill="#c69386" opacity="0.82"/>
    <rect x="500" y="346" width="360" height="28" rx="14" fill="#3977ff" opacity="0.82"/>
  
  
    <g transform="translate(990 486)">
      <rect width="110" height="74" rx="0" fill="#fbfaf7" stroke="#c8c3b7" stroke-width="2"/>
      <text x="22" y="48" font-family="Arial, Helvetica, sans-serif" font-size="28" font-weight="800" fill="#c69386">MSG</text>
    </g>
</svg>
