<svg xmlns="http://www.w3.org/2000/svg" width="1200" height="630" viewBox="0 0 1200 630" role="img" aria-labelledby="title desc">
  <title id="title">January 2017: Systems over motivation</title>
  <desc id="desc">Systems as a stronger force than motivation</desc>
  <rect width="1200" height="630" fill="#e8e6df"/>
  <rect x="36" y="36" width="1128" height="558" fill="#fbfaf7" stroke="#0b0b09" stroke-width="2"/>
  <rect x="72" y="76" width="170" height="46" fill="#c69386" opacity="0.18" stroke="#c69386" stroke-width="1"/>
  <text x="96" y="106" font-family="Arial, Helvetica, sans-serif" font-size="17" font-weight="700" letter-spacing="4" fill="#0b0b09">PERFORMANCE</text>
  <text x="72" y="180" font-family="Georgia, 'Times New Roman', serif" font-size="34" fill="#64615b">JAN 2017</text>
  <text x="72" y="260" font-family="Georgia, 'Times New Roman', serif" font-size="58" font-weight="500" fill="#0b0b09">Systems over</text>
  <text x="72" y="324" font-family="Georgia, 'Times New Roman', serif" font-size="58" font-weight="500" fill="#0b0b09">motivation</text>
  <text x="72" y="535" font-family="Arial, Helvetica, sans-serif" font-size="22" fill="#64615b">Systems as a stronger force than motivation</text>
  
      <path d="M660 340 C730 220 790 465 850 320 S975 180 1090 300" fill="none" stroke="#c69386" stroke-width="4"/>
      <path d="M660 390 C760 300 830 455 920 345 S1020 300 1090 365" fill="none" stroke="#c8c3b7" stroke-width="3"/>
      <circle cx="735" cy="300" r="13" fill="#0b0b09"/>
      <circle cx="850" cy="320" r="13" fill="#0b0b09"/>
      <circle cx="1018" cy="282" r="13" fill="#0b0b09"/>
    
  <line x1="624" y1="94" x2="624" y2="536" stroke="#c8c3b7" stroke-width="1"/>
  <rect x="868" y="498" width="86" height="58" fill="#fbfaf7" stroke="#c8c3b7" stroke-width="2"/>
  <text x="889" y="535" font-family="Arial, Helvetica, sans-serif" font-size="26" font-weight="700" fill="#c69386">MS</text>
</svg>
