<svg xmlns="http://www.w3.org/2000/svg" width="1200" height="630" viewBox="0 0 1200 630" role="img" aria-labelledby="title desc">
  <title id="title">Human-centred tools over novelty</title>
  <desc id="desc">Usefulness over novelty</desc>
  
  <defs>
    <radialGradient id="glow" cx="52%" cy="-25%" r="80%">
      <stop offset="0%" stop-color="#7ccf78" stop-opacity="0.42"/>
      <stop offset="48%" stop-color="#edf2e6" stop-opacity="0.9"/>
      <stop offset="100%" stop-color="#edf2e6"/>
    </radialGradient>
    <linearGradient id="panel" x1="0" y1="0" x2="1" y2="1">
      <stop offset="0%" stop-color="#ffffff" stop-opacity="0.88"/>
      <stop offset="100%" stop-color="#fbfaf7" stop-opacity="0.64"/>
    </linearGradient>
    <filter id="shadow" x="-30%" y="-30%" width="160%" height="160%">
      <feDropShadow dx="0" dy="28" stdDeviation="30" flood-color="#0b0b09" flood-opacity="0.17"/>
    </filter>
    
    <filter id="grain">
      <feTurbulence type="fractalNoise" baseFrequency="0.81" numOctaves="3" stitchTiles="stitch"/>
      <feColorMatrix type="saturate" values="0"/>
      <feComponentTransfer><feFuncA type="table" tableValues="0 0.056999999999999995"/></feComponentTransfer>
    </filter>
  </defs>
  
      <rect width="1200" height="630" fill="#edf2e6"/>
      <path d="M0 0V630 M63 0V630 M126 0V630 M189 0V630 M252 0V630 M315 0V630 M378 0V630 M441 0V630 M504 0V630 M567 0V630 M630 0V630 M693 0V630 M756 0V630 M819 0V630 M882 0V630 M945 0V630 M1008 0V630 M1071 0V630 M1134 0V630 M1197 0V630 M0 0H1200 M0 63H1200 M0 126H1200 M0 189H1200 M0 252H1200 M0 315H1200 M0 378H1200 M0 441H1200 M0 504H1200 M0 567H1200" stroke="#c8c3b7" stroke-width="1" opacity="0.46"/>
      <rect width="1200" height="630" fill="url(#glow)" opacity="0.56"/>
      <rect width="1200" height="630" filter="url(#grain)" opacity="0.75"/>
  
      <rect x="96" y="90" width="1008" height="450" rx="0" fill="#fbfaf7" stroke="#c8c3b7" filter="url(#shadow)"/>
      <path d="M164 168 H1036 M164 462 H1036" stroke="#0b0b09" stroke-width="4"/>
      <rect x="178" y="216" width="64" height="38" rx="10" fill="#0b0b09" opacity="0.9"/><rect x="284" y="216" width="64" height="38" rx="10" fill="#c8c3b7" opacity="0.62"/><rect x="390" y="216" width="64" height="38" rx="10" fill="#c8c3b7" opacity="0.62"/><rect x="496" y="216" width="64" height="38" rx="10" fill="#7ccf78" opacity="0.9"/><rect x="602" y="216" width="64" height="38" rx="10" fill="#0b0b09" opacity="0.62"/><rect x="708" y="216" width="64" height="38" rx="10" fill="#c8c3b7" opacity="0.62"/><rect x="814" y="216" width="64" height="38" rx="10" fill="#7ccf78" opacity="0.9"/><rect x="920" y="216" width="64" height="38" rx="10" fill="#c8c3b7" opacity="0.62"/><rect x="178" y="282" width="64" height="38" rx="10" fill="#0b0b09" opacity="0.62"/><rect x="284" y="282" width="64" height="38" rx="10" fill="#7ccf78" opacity="0.9"/><rect x="390" y="282" width="64" height="38" rx="10" fill="#c8c3b7" opacity="0.62"/><rect x="496" y="282" width="64" height="38" rx="10" fill="#c8c3b7" opacity="0.62"/><rect x="602" y="282" width="64" height="38" rx="10" fill="#0b0b09" opacity="0.9"/><rect x="708" y="282" width="64" height="38" rx="10" fill="#c8c3b7" opacity="0.62"/><rect x="814" y="282" width="64" height="38" rx="10" fill="#c8c3b7" opacity="0.62"/><rect x="920" y="282" width="64" height="38" rx="10" fill="#7ccf78" opacity="0.9"/><rect x="178" y="348" width="64" height="38" rx="10" fill="#0b0b09" opacity="0.62"/><rect x="284" y="348" width="64" height="38" rx="10" fill="#c8c3b7" opacity="0.62"/><rect x="390" y="348" width="64" height="38" rx="10" fill="#7ccf78" opacity="0.9"/><rect x="496" y="348" width="64" height="38" rx="10" fill="#c8c3b7" opacity="0.62"/><rect x="602" y="348" width="64" height="38" rx="10" fill="#0b0b09" opacity="0.62"/><rect x="708" y="348" width="64" height="38" rx="10" fill="#7ccf78" opacity="0.9"/><rect x="814" y="348" width="64" height="38" rx="10" fill="#c8c3b7" opacity="0.62"/><rect x="920" y="348" width="64" height="38" rx="10" fill="#c8c3b7" opacity="0.62"/>
    
  
    <g transform="translate(990 486)">
      <rect width="110" height="74" rx="0" fill="#fbfaf7" stroke="#c8c3b7" stroke-width="2"/>
      <text x="22" y="48" font-family="Arial, Helvetica, sans-serif" font-size="28" font-weight="800" fill="#0b0b09">MSG</text>
    </g>
</svg>
