<svg xmlns="http://www.w3.org/2000/svg" width="1200" height="630" viewBox="0 0 1200 630" role="img" aria-labelledby="title desc">
  <title id="title">The role of memory</title>
  <desc id="desc">Why useful systems need continuity</desc>
  
  <defs>
    <radialGradient id="glow" cx="28%" cy="55%" r="80%">
      <stop offset="0%" stop-color="#f2b84b" stop-opacity="0.42"/>
      <stop offset="48%" stop-color="#e7f0f4" stop-opacity="0.9"/>
      <stop offset="100%" stop-color="#e7f0f4"/>
    </radialGradient>
    <linearGradient id="panel" x1="0" y1="0" x2="1" y2="1">
      <stop offset="0%" stop-color="#ffffff" stop-opacity="0.88"/>
      <stop offset="100%" stop-color="#fbfaf7" stop-opacity="0.64"/>
    </linearGradient>
    <filter id="shadow" x="-30%" y="-30%" width="160%" height="160%">
      <feDropShadow dx="0" dy="28" stdDeviation="30" flood-color="#0b0b09" flood-opacity="0.17"/>
    </filter>
    
    <filter id="grain">
      <feTurbulence type="fractalNoise" baseFrequency="0.77" numOctaves="3" stitchTiles="stitch"/>
      <feColorMatrix type="saturate" values="0"/>
      <feComponentTransfer><feFuncA type="table" tableValues="0 0.081"/></feComponentTransfer>
    </filter>
  </defs>
  
      <rect width="1200" height="630" fill="#e7f0f4"/>
      <path d="M0 0V630 M65 0V630 M130 0V630 M195 0V630 M260 0V630 M325 0V630 M390 0V630 M455 0V630 M520 0V630 M585 0V630 M650 0V630 M715 0V630 M780 0V630 M845 0V630 M910 0V630 M975 0V630 M1040 0V630 M1105 0V630 M1170 0V630 M0 0H1200 M0 65H1200 M0 130H1200 M0 195H1200 M0 260H1200 M0 325H1200 M0 390H1200 M0 455H1200 M0 520H1200 M0 585H1200" stroke="#c8c3b7" stroke-width="1" opacity="0.46"/>
      <rect width="1200" height="630" fill="url(#glow)" opacity="0.56"/>
      <rect width="1200" height="630" filter="url(#grain)" opacity="0.75"/>
  
      <rect x="90" y="78" width="1020" height="474" rx="42" fill="#fbfaf7" filter="url(#shadow)"/>
      <circle cx="521" cy="327" r="18" fill="#3977ff" opacity="0.18"/><circle cx="618" cy="388" r="30" fill="#f2b84b" opacity="0.28"/><circle cx="715" cy="449" r="42" fill="#0b0b09" opacity="0.38"/><circle cx="812" cy="150" r="54" fill="#3977ff" opacity="0.48000000000000004"/><circle cx="909" cy="211" r="18" fill="#f2b84b" opacity="0.5800000000000001"/><circle cx="1006" cy="272" r="30" fill="#0b0b09" opacity="0.18"/><circle cx="253" cy="333" r="42" fill="#3977ff" opacity="0.28"/><circle cx="350" cy="394" r="54" fill="#f2b84b" opacity="0.38"/><circle cx="447" cy="455" r="18" fill="#0b0b09" opacity="0.48000000000000004"/><circle cx="544" cy="156" r="30" fill="#3977ff" opacity="0.5800000000000001"/><circle cx="641" cy="217" r="42" fill="#f2b84b" opacity="0.18"/><circle cx="738" cy="278" r="54" fill="#0b0b09" opacity="0.28"/><circle cx="835" cy="339" r="18" fill="#3977ff" opacity="0.38"/><circle cx="932" cy="400" r="30" fill="#f2b84b" opacity="0.48000000000000004"/><circle cx="179" cy="461" r="42" fill="#0b0b09" opacity="0.5800000000000001"/><circle cx="276" cy="162" r="54" fill="#3977ff" opacity="0.18"/>
      <path d="M166 444 C274 312 388 402 504 246 S768 126 1006 218" stroke="#3977ff" stroke-width="7" fill="none"/>
      <path d="M210 192 C378 276 496 126 650 232 S850 404 1034 308" stroke="#f2b84b" stroke-width="7" fill="none" opacity="0.8"/>
    
  
    <g transform="translate(990 486)">
      <rect width="110" height="74" rx="0" fill="#fbfaf7" stroke="#c8c3b7" stroke-width="2"/>
      <text x="22" y="48" font-family="Arial, Helvetica, sans-serif" font-size="28" font-weight="800" fill="#3977ff">MSG</text>
    </g>
</svg>
