<svg xmlns="http://www.w3.org/2000/svg" width="1200" height="630" viewBox="0 0 1200 630" role="img" aria-labelledby="title desc">
  <title id="title">Product ideas as research outputs</title>
  <desc id="desc">Research becoming a path towards product</desc>
  
    <defs>
      <linearGradient id="backgroundGradient" x1="0" y1="0" x2="1" y2="1">
        <stop offset="0%" stop-color="#e8e6df"/>
        <stop offset="58%" stop-color="#e8e6df"/>
        <stop offset="100%" stop-color="#b8d7ff"/>
      </linearGradient>
      <radialGradient id="fieldGradient" cx="68%" cy="42%" r="70%">
        <stop offset="0%" stop-color="#4f7cff" stop-opacity="0.92"/>
        <stop offset="55%" stop-color="#e86bd6" stop-opacity="0.54"/>
        <stop offset="100%" stop-color="#cf6f5f" stop-opacity="0.86"/>
      </radialGradient>
      <linearGradient id="waveGradient" x1="0" y1="0" x2="1" y2="1">
        <stop offset="0%" stop-color="#e86bd6"/>
        <stop offset="50%" stop-color="#b8d7ff"/>
        <stop offset="100%" stop-color="#4f7cff"/>
      </linearGradient>
      <filter id="softShadow" x="-20%" y="-20%" width="140%" height="140%">
        <feDropShadow dx="0" dy="28" stdDeviation="26" flood-color="#0b0b09" flood-opacity="0.18"/>
      </filter>
    </defs>
  
  <rect width="1200" height="630" fill="url(#backgroundGradient)"/>
  <rect x="34" y="34" width="1132" height="562" rx="0" fill="#11110f" stroke="#3a3833" stroke-width="2"/>
  <circle cx="935" cy="273" r="205" fill="#e86bd6" opacity="0.18"/>
  <circle cx="885" cy="285" r="175" fill="#4f7cff" opacity="0.16"/>
  <g filter="url(#softShadow)">
    
    <circle cx="850" cy="316" r="218" fill="none" stroke="#b8d7ff" stroke-width="3"/>
    <circle cx="850" cy="316" r="132" fill="none" stroke="#c8c3b7" stroke-width="3"/>
    <path d="M642 316 C720 128 982 128 1060 316 C982 504 720 504 642 316Z" fill="none" stroke="#4f7cff" stroke-width="5" opacity="0.76"/>
    <path d="M850 112 C960 210 958 418 850 520 C742 418 740 210 850 112Z" fill="none" stroke="#e86bd6" stroke-width="4" opacity="0.72"/>
    <circle cx="850" cy="316" r="28" fill="#fbfaf7" stroke="#0b0b09" stroke-width="4"/>
    <circle cx="642" cy="316" r="14" fill="#0b0b09"/>
    <circle cx="1060" cy="316" r="14" fill="#0b0b09"/>
    <circle cx="850" cy="112" r="12" fill="#0b0b09"/>
  
  </g>
  <rect x="70" y="76" width="184" height="48" rx="24" fill="rgba(255,255,255,0.08)" stroke="#3a3833"/>
  <text x="96" y="107" font-family="Arial, Helvetica, sans-serif" font-size="16" font-weight="700" letter-spacing="3.4" fill="#b8d7ff">RESEARCH</text>
  <text x="74" y="184" font-family="Georgia, 'Times New Roman', serif" font-size="32" fill="#d9d0c3">AUG 2017</text>
  <text x="72" y="260" font-family="Georgia, 'Times New Roman', serif" font-size="62" font-weight="500" fill="#fbfaf7">Product ideas as</text>
  <text x="72" y="324" font-family="Georgia, 'Times New Roman', serif" font-size="62" font-weight="500" fill="#fbfaf7">research outputs</text>
  <text x="74" y="536" font-family="Arial, Helvetica, sans-serif" font-size="22" fill="#c8c0b2">Research becoming a path towards product</text>
  <rect x="1030" y="500" width="74" height="58" rx="0" fill="#191916" stroke="#4d4942" stroke-width="2"/>
  <text x="1048" y="537" font-family="Arial, Helvetica, sans-serif" font-size="25" font-weight="800" fill="#4f7cff">MS</text>
</svg>
