<svg xmlns="http://www.w3.org/2000/svg" width="1200" height="630" viewBox="0 0 1200 630" role="img" aria-labelledby="title desc">
  <title id="title">April 2017: Thinking in interfaces</title>
  <desc id="desc">A historical MSG archive draft on interfaces as the place where systems become usable.</desc>
  <rect width="1200" height="630" fill="#e8e6df"/>
  <rect x="36" y="36" width="1128" height="558" fill="#fbfaf7" stroke="#0b0b09" stroke-width="2"/>
  <rect x="72" y="76" width="170" height="46" fill="#0b0b09" opacity="0.18" stroke="#0b0b09" stroke-width="1"/>
  <text x="96" y="106" font-family="Arial, Helvetica, sans-serif" font-size="17" font-weight="700" letter-spacing="4" fill="#0b0b09">PRODUCT</text>
  <text x="72" y="180" font-family="Georgia, 'Times New Roman', serif" font-size="34" fill="#64615b">APR 2017</text>
  <text x="72" y="260" font-family="Georgia, 'Times New Roman', serif" font-size="58" font-weight="500" fill="#0b0b09">Thinking in</text>
  <text x="72" y="324" font-family="Georgia, 'Times New Roman', serif" font-size="58" font-weight="500" fill="#0b0b09">interfaces</text>
  <text x="72" y="535" font-family="Arial, Helvetica, sans-serif" font-size="22" fill="#64615b">interfaces as the place where systems become</text>
  
      <path d="M670 170 H1100 M670 250 H1100 M670 330 H1100 M670 410 H1100 M720 130 V460 M820 130 V460 M920 130 V460 M1020 130 V460" stroke="#c8c3b7" stroke-width="2"/>
      <rect x="740" y="210" width="140" height="120" fill="#0b0b09" opacity="0.12" stroke="#0b0b09" stroke-width="2"/>
      <rect x="920" y="290" width="110" height="90" fill="#c69386" opacity="0.18" stroke="#c69386" stroke-width="2"/>
      <circle cx="740" cy="410" r="14" fill="#0b0b09"/>
      <circle cx="1035" cy="185" r="14" fill="#0b0b09"/>
    
  <line x1="624" y1="94" x2="624" y2="536" stroke="#c8c3b7" stroke-width="1"/>
  <rect x="868" y="498" width="86" height="58" fill="#fbfaf7" stroke="#c8c3b7" stroke-width="2"/>
  <text x="889" y="535" font-family="Arial, Helvetica, sans-serif" font-size="26" font-weight="700" fill="#c69386">MS</text>
</svg>
