<svg xmlns="http://www.w3.org/2000/svg" width="1200" height="630" viewBox="0 0 1200 630" role="img" aria-labelledby="title desc">
  <title id="title">Tools, research and taste</title>
  <desc id="desc">Year-end notes on tools and taste</desc>
  
  <defs>
    <radialGradient id="glow" cx="61%" cy="33%" r="80%">
      <stop offset="0%" stop-color="#3977ff" stop-opacity="0.42"/>
      <stop offset="48%" stop-color="#eee9df" stop-opacity="0.9"/>
      <stop offset="100%" stop-color="#eee9df"/>
    </radialGradient>
    <linearGradient id="panel" x1="0" y1="0" x2="1" y2="1">
      <stop offset="0%" stop-color="#ffffff" stop-opacity="0.88"/>
      <stop offset="100%" stop-color="#fbfaf7" stop-opacity="0.64"/>
    </linearGradient>
    <filter id="shadow" x="-30%" y="-30%" width="160%" height="160%">
      <feDropShadow dx="0" dy="28" stdDeviation="30" flood-color="#0b0b09" flood-opacity="0.17"/>
    </filter>
    
    <filter id="grain">
      <feTurbulence type="fractalNoise" baseFrequency="0.8" numOctaves="3" stitchTiles="stitch"/>
      <feColorMatrix type="saturate" values="0"/>
      <feComponentTransfer><feFuncA type="table" tableValues="0 0.069"/></feComponentTransfer>
    </filter>
  </defs>
  
      <rect width="1200" height="630" fill="#eee9df"/>
      <path d="M0 0V630 M68 0V630 M136 0V630 M204 0V630 M272 0V630 M340 0V630 M408 0V630 M476 0V630 M544 0V630 M612 0V630 M680 0V630 M748 0V630 M816 0V630 M884 0V630 M952 0V630 M1020 0V630 M1088 0V630 M1156 0V630 M0 0H1200 M0 68H1200 M0 136H1200 M0 204H1200 M0 272H1200 M0 340H1200 M0 408H1200 M0 476H1200 M0 544H1200 M0 612H1200" stroke="#c8c3b7" stroke-width="1" opacity="0.46"/>
      <rect width="1200" height="630" fill="url(#glow)" opacity="0.56"/>
      <rect width="1200" height="630" filter="url(#grain)" opacity="0.75"/>
  
      <rect x="96" y="90" width="1008" height="450" rx="38" fill="#fbfaf7" filter="url(#shadow)"/>
      <path d="M158 420 H1046" stroke="#0b0b09" stroke-width="5"/>
      <circle cx="294" cy="254" r="78" fill="none" stroke="#c69386" stroke-width="8"/>
      <circle cx="514" cy="254" r="78" fill="none" stroke="#3977ff" stroke-width="8"/>
      <circle cx="734" cy="254" r="78" fill="none" stroke="#0b0b09" stroke-width="8" opacity="0.42"/>
      <path d="M860 184 H1012 M860 246 H964 M860 308 H1028" stroke="#0b0b09" stroke-width="14" stroke-linecap="round" opacity="0.54"/>
    
  
    <g transform="translate(990 486)">
      <rect width="110" height="74" rx="0" fill="#fbfaf7" stroke="#c8c3b7" stroke-width="2"/>
      <text x="22" y="48" font-family="Arial, Helvetica, sans-serif" font-size="28" font-weight="800" fill="#c69386">MSG</text>
    </g>
</svg>
