<svg xmlns="http://www.w3.org/2000/svg" width="1200" height="630" viewBox="0 0 1200 630" role="img" aria-labelledby="title desc">
  <title id="title">Language model momentum</title>
  <desc id="desc">Early momentum around language models</desc>
  
  <defs>
    <radialGradient id="glow" cx="61%" cy="69%" r="80%">
      <stop offset="0%" stop-color="#ef5da8" stop-opacity="0.42"/>
      <stop offset="48%" stop-color="#e7ecff" stop-opacity="0.9"/>
      <stop offset="100%" stop-color="#e7ecff"/>
    </radialGradient>
    <linearGradient id="panel" x1="0" y1="0" x2="1" y2="1">
      <stop offset="0%" stop-color="#ffffff" stop-opacity="0.88"/>
      <stop offset="100%" stop-color="#fbfaf7" stop-opacity="0.64"/>
    </linearGradient>
    <filter id="shadow" x="-30%" y="-30%" width="160%" height="160%">
      <feDropShadow dx="0" dy="28" stdDeviation="30" flood-color="#0b0b09" flood-opacity="0.17"/>
    </filter>
    
    <filter id="grain">
      <feTurbulence type="fractalNoise" baseFrequency="0.8" numOctaves="3" stitchTiles="stitch"/>
      <feColorMatrix type="saturate" values="0"/>
      <feComponentTransfer><feFuncA type="table" tableValues="0 0.045"/></feComponentTransfer>
    </filter>
  </defs>
  
      <rect width="1200" height="630" fill="#e7ecff"/>
      <circle cx="346" cy="244" r="360" fill="#ef5da8" opacity="0.42"/>
      <circle cx="828" cy="397" r="330" fill="#3977ff" opacity="0.26"/>
      <rect width="1200" height="630" fill="url(#glow)" opacity="0.54"/>
      <rect width="1200" height="630" filter="url(#grain)" opacity="0.8"/>
  
    <rect x="78" y="68" width="1044" height="494" rx="42" fill="url(#glow)" filter="url(#shadow)"/>
    <path d="M140 420 C280 140 420 520 590 272 S920 96 1070 350" fill="none" stroke="#ef5da8" stroke-width="7" opacity="0.78"/>
    <path d="M180 180 C360 350 520 140 720 300 S910 476 1050 180" fill="none" stroke="#ffffff" stroke-width="5" opacity="0.62"/>
    <circle cx="132" cy="123" r="8" fill="#0b0b09" opacity="0.38"/><circle cx="203" cy="123" r="8" fill="#0b0b09" opacity="0.38"/><circle cx="274" cy="123" r="8" fill="#0b0b09" opacity="0.38"/><circle cx="345" cy="123" r="8" fill="#0b0b09" opacity="0.38"/><circle cx="400" cy="123" r="16" fill="#3977ff" opacity="0.9"/><circle cx="471" cy="123" r="8" fill="#0b0b09" opacity="0.38"/><circle cx="542" cy="123" r="8" fill="#0b0b09" opacity="0.38"/><circle cx="123" cy="193" r="8" fill="#0b0b09" opacity="0.38"/><circle cx="194" cy="193" r="8" fill="#0b0b09" opacity="0.38"/><circle cx="265" cy="193" r="16" fill="#3977ff" opacity="0.9"/><circle cx="336" cy="193" r="8" fill="#0b0b09" opacity="0.38"/><circle cx="407" cy="193" r="8" fill="#0b0b09" opacity="0.38"/><circle cx="478" cy="193" r="8" fill="#0b0b09" opacity="0.38"/><circle cx="549" cy="193" r="8" fill="#0b0b09" opacity="0.38"/><circle cx="130" cy="263" r="16" fill="#3977ff" opacity="0.9"/><circle cx="201" cy="263" r="8" fill="#0b0b09" opacity="0.38"/><circle cx="272" cy="263" r="8" fill="#0b0b09" opacity="0.38"/><circle cx="343" cy="263" r="8" fill="#0b0b09" opacity="0.38"/><circle cx="414" cy="263" r="8" fill="#0b0b09" opacity="0.38"/><circle cx="485" cy="263" r="16" fill="#3977ff" opacity="0.9"/><circle cx="540" cy="263" r="8" fill="#0b0b09" opacity="0.38"/><circle cx="121" cy="333" r="8" fill="#0b0b09" opacity="0.38"/><circle cx="192" cy="333" r="8" fill="#0b0b09" opacity="0.38"/><circle cx="263" cy="333" r="8" fill="#0b0b09" opacity="0.38"/><circle cx="334" cy="333" r="16" fill="#3977ff" opacity="0.9"/><circle cx="405" cy="333" r="8" fill="#0b0b09" opacity="0.38"/><circle cx="476" cy="333" r="8" fill="#0b0b09" opacity="0.38"/><circle cx="547" cy="333" r="8" fill="#0b0b09" opacity="0.38"/><circle cx="128" cy="403" r="8" fill="#0b0b09" opacity="0.38"/><circle cx="199" cy="403" r="16" fill="#3977ff" opacity="0.9"/><circle cx="270" cy="403" r="8" fill="#0b0b09" opacity="0.38"/><circle cx="341" cy="403" r="8" fill="#0b0b09" opacity="0.38"/><circle cx="412" cy="403" r="8" fill="#0b0b09" opacity="0.38"/><circle cx="483" cy="403" r="8" fill="#0b0b09" opacity="0.38"/><circle cx="554" cy="403" r="16" fill="#3977ff" opacity="0.9"/><circle cx="135" cy="473" r="8" fill="#0b0b09" opacity="0.38"/><circle cx="190" cy="473" r="8" fill="#0b0b09" opacity="0.38"/><circle cx="261" cy="473" r="8" fill="#0b0b09" opacity="0.38"/><circle cx="332" cy="473" r="8" fill="#0b0b09" opacity="0.38"/><circle cx="403" cy="473" r="16" fill="#3977ff" opacity="0.9"/><circle cx="474" cy="473" r="8" fill="#0b0b09" opacity="0.38"/><circle cx="545" cy="473" r="8" fill="#0b0b09" opacity="0.38"/>
  
  
    <g transform="translate(990 486)">
      <rect width="110" height="74" rx="0" fill="#fbfaf7" stroke="#c8c3b7" stroke-width="2"/>
      <text x="22" y="48" font-family="Arial, Helvetica, sans-serif" font-size="28" font-weight="800" fill="#3977ff">MSG</text>
    </g>
</svg>
