<svg xmlns="http://www.w3.org/2000/svg" width="1200" height="630" viewBox="0 0 1200 630" role="img" aria-labelledby="title desc">
  <title id="title">Performance standards and accountability</title>
  <desc id="desc">Standards as a performance interface</desc>
  
  <defs>
    <radialGradient id="glow" cx="55%" cy="3%" r="80%">
      <stop offset="0%" stop-color="#7ccf78" stop-opacity="0.42"/>
      <stop offset="48%" stop-color="#fff0e8" stop-opacity="0.9"/>
      <stop offset="100%" stop-color="#fff0e8"/>
    </radialGradient>
    <linearGradient id="panel" x1="0" y1="0" x2="1" y2="1">
      <stop offset="0%" stop-color="#ffffff" stop-opacity="0.88"/>
      <stop offset="100%" stop-color="#fbfaf7" stop-opacity="0.64"/>
    </linearGradient>
    <filter id="shadow" x="-30%" y="-30%" width="160%" height="160%">
      <feDropShadow dx="0" dy="28" stdDeviation="30" flood-color="#0b0b09" flood-opacity="0.17"/>
    </filter>
    
    <filter id="grain">
      <feTurbulence type="fractalNoise" baseFrequency="0.74" numOctaves="3" stitchTiles="stitch"/>
      <feColorMatrix type="saturate" values="0"/>
      <feComponentTransfer><feFuncA type="table" tableValues="0 0.045"/></feComponentTransfer>
    </filter>
  </defs>
  
      <rect width="1200" height="630" fill="#fff0e8"/>
      <circle cx="310" cy="-89" r="360" fill="#7ccf78" opacity="0.42"/>
      <circle cx="490" cy="162" r="330" fill="#ff4f64" opacity="0.26"/>
      <rect width="1200" height="630" fill="url(#glow)" opacity="0.54"/>
      <rect width="1200" height="630" filter="url(#grain)" opacity="0.8"/>
  
    <rect x="170" y="72" width="300" height="490" rx="48" fill="#11110f" filter="url(#shadow)"/>
    <rect x="204" y="126" width="232" height="362" rx="28" fill="#fbfaf7"/>
    <path d="M238 382 C276 282 322 438 362 342 S418 264 440 310" fill="none" stroke="#ff4f64" stroke-width="8"/>
    <circle cx="302" cy="348" r="14" fill="#0b0b09"/><circle cx="390" cy="316" r="14" fill="#7ccf78"/>
    <path d="M600 174 C734 58 900 186 980 98" fill="none" stroke="#7ccf78" stroke-width="9" opacity="0.78"/>
    <path d="M570 358 C724 238 886 512 1048 304" fill="none" stroke="#ff4f64" stroke-width="9" opacity="0.78"/>
    <circle cx="640" cy="360" r="34" fill="#0b0b09"/><circle cx="828" cy="412" r="34" fill="#fbfaf7" stroke="#0b0b09" stroke-width="4"/>
  
  
    <g transform="translate(990 486)">
      <rect width="110" height="74" rx="0" fill="#fbfaf7" stroke="#c8c3b7" stroke-width="2"/>
      <text x="22" y="48" font-family="Arial, Helvetica, sans-serif" font-size="28" font-weight="800" fill="#ff4f64">MSG</text>
    </g>
</svg>
