<svg xmlns="http://www.w3.org/2000/svg" width="1200" height="630" viewBox="0 0 1200 630" role="img" aria-labelledby="title desc">
  <title id="title">Organising ideas into systems</title>
  <desc id="desc">Turning ideas into durable structures</desc>
  
  <defs>
    <radialGradient id="glow" cx="25%" cy="51%" r="80%">
      <stop offset="0%" stop-color="#7ccf78" stop-opacity="0.42"/>
      <stop offset="48%" stop-color="#edf2e6" stop-opacity="0.9"/>
      <stop offset="100%" stop-color="#edf2e6"/>
    </radialGradient>
    <linearGradient id="panel" x1="0" y1="0" x2="1" y2="1">
      <stop offset="0%" stop-color="#ffffff" stop-opacity="0.88"/>
      <stop offset="100%" stop-color="#fbfaf7" stop-opacity="0.64"/>
    </linearGradient>
    <filter id="shadow" x="-30%" y="-30%" width="160%" height="160%">
      <feDropShadow dx="0" dy="28" stdDeviation="30" flood-color="#0b0b09" flood-opacity="0.17"/>
    </filter>
    
    <filter id="grain">
      <feTurbulence type="fractalNoise" baseFrequency="0.74" numOctaves="3" stitchTiles="stitch"/>
      <feColorMatrix type="saturate" values="0"/>
      <feComponentTransfer><feFuncA type="table" tableValues="0 0.069"/></feComponentTransfer>
    </filter>
  </defs>
  
      <rect width="1200" height="630" fill="#edf2e6"/>
      <path d="M0 0V630 M62 0V630 M124 0V630 M186 0V630 M248 0V630 M310 0V630 M372 0V630 M434 0V630 M496 0V630 M558 0V630 M620 0V630 M682 0V630 M744 0V630 M806 0V630 M868 0V630 M930 0V630 M992 0V630 M1054 0V630 M1116 0V630 M1178 0V630 M0 0H1200 M0 62H1200 M0 124H1200 M0 186H1200 M0 248H1200 M0 310H1200 M0 372H1200 M0 434H1200 M0 496H1200 M0 558H1200 M0 620H1200" stroke="#c8c3b7" stroke-width="1" opacity="0.46"/>
      <rect width="1200" height="630" fill="url(#glow)" opacity="0.56"/>
      <rect width="1200" height="630" filter="url(#grain)" opacity="0.75"/>
  
      <rect x="90" y="82" width="1020" height="466" rx="38" fill="#11110f" filter="url(#shadow)"/>
      <rect x="158" y="152" width="150" height="184" rx="28" fill="#fbfaf7" opacity="0.94"/><rect x="388" y="189" width="150" height="227" rx="28" fill="#7ccf78" opacity="0.86"/><rect x="618" y="226" width="150" height="270" rx="28" fill="#fbfaf7" opacity="0.94"/><rect x="848" y="143" width="150" height="193" rx="28" fill="#7ccf78" opacity="0.86"/>
      <path d="M164 454 H1038" stroke="#fbfaf7" stroke-width="5" opacity="0.56"/>
      <path d="M208 190 C404 110 514 272 686 176 S890 132 1010 222" stroke="#0b0b09" stroke-width="7" fill="none"/>
    
  
    <g transform="translate(990 486)">
      <rect width="110" height="74" rx="0" fill="#fbfaf7" stroke="#c8c3b7" stroke-width="2"/>
      <text x="22" y="48" font-family="Arial, Helvetica, sans-serif" font-size="28" font-weight="800" fill="#0b0b09">MSG</text>
    </g>
</svg>
