<svg xmlns="http://www.w3.org/2000/svg" width="1200" height="630" viewBox="0 0 1200 630" role="img" aria-labelledby="title desc">
  <title id="title">What should remain human</title>
  <desc id="desc">The human role inside automated systems</desc>
  
  <defs>
    <radialGradient id="glow" cx="45%" cy="48%" r="80%">
      <stop offset="0%" stop-color="#3977ff" stop-opacity="0.42"/>
      <stop offset="48%" stop-color="#eee9df" stop-opacity="0.9"/>
      <stop offset="100%" stop-color="#eee9df"/>
    </radialGradient>
    <linearGradient id="panel" x1="0" y1="0" x2="1" y2="1">
      <stop offset="0%" stop-color="#ffffff" stop-opacity="0.88"/>
      <stop offset="100%" stop-color="#fbfaf7" stop-opacity="0.64"/>
    </linearGradient>
    <filter id="shadow" x="-30%" y="-30%" width="160%" height="160%">
      <feDropShadow dx="0" dy="28" stdDeviation="30" flood-color="#0b0b09" flood-opacity="0.17"/>
    </filter>
    
    <filter id="grain">
      <feTurbulence type="fractalNoise" baseFrequency="0.74" numOctaves="3" stitchTiles="stitch"/>
      <feColorMatrix type="saturate" values="0"/>
      <feComponentTransfer><feFuncA type="table" tableValues="0 0.069"/></feComponentTransfer>
    </filter>
  </defs>
  
      <rect width="1200" height="630" fill="#eee9df"/>
      <path d="M0 0V630 M66 0V630 M132 0V630 M198 0V630 M264 0V630 M330 0V630 M396 0V630 M462 0V630 M528 0V630 M594 0V630 M660 0V630 M726 0V630 M792 0V630 M858 0V630 M924 0V630 M990 0V630 M1056 0V630 M1122 0V630 M1188 0V630 M0 0H1200 M0 66H1200 M0 132H1200 M0 198H1200 M0 264H1200 M0 330H1200 M0 396H1200 M0 462H1200 M0 528H1200 M0 594H1200" stroke="#c8c3b7" stroke-width="1" opacity="0.46"/>
      <rect width="1200" height="630" fill="url(#glow)" opacity="0.56"/>
      <rect width="1200" height="630" filter="url(#grain)" opacity="0.75"/>
  
      <rect x="112" y="86" width="976" height="458" rx="0" fill="url(#glow)" filter="url(#shadow)"/>
      <path d="M202 456 C350 218 490 506 650 266 S888 100 1012 238" stroke="#c69386" stroke-width="8" fill="none"/>
      <rect x="174" y="152" width="108" height="82" rx="20" fill="#3977ff" opacity="0.76"/><rect x="342" y="152" width="108" height="82" rx="20" fill="#fbfaf7" opacity="0.9"/><rect x="510" y="152" width="108" height="82" rx="20" fill="#3977ff" opacity="0.76"/><rect x="678" y="152" width="108" height="82" rx="20" fill="#fbfaf7" opacity="0.9"/><rect x="846" y="152" width="108" height="82" rx="20" fill="#3977ff" opacity="0.76"/><rect x="174" y="312" width="108" height="82" rx="20" fill="#fbfaf7" opacity="0.9"/><rect x="342" y="312" width="108" height="82" rx="20" fill="#3977ff" opacity="0.76"/><rect x="510" y="312" width="108" height="82" rx="20" fill="#fbfaf7" opacity="0.9"/><rect x="678" y="312" width="108" height="82" rx="20" fill="#3977ff" opacity="0.76"/><rect x="846" y="312" width="108" height="82" rx="20" fill="#fbfaf7" opacity="0.9"/>
    
  
    <g transform="translate(990 486)">
      <rect width="110" height="74" rx="0" fill="#fbfaf7" stroke="#c8c3b7" stroke-width="2"/>
      <text x="22" y="48" font-family="Arial, Helvetica, sans-serif" font-size="28" font-weight="800" fill="#c69386">MSG</text>
    </g>
</svg>
