<svg xmlns="http://www.w3.org/2000/svg" width="1200" height="630" viewBox="0 0 1200 630" role="img" aria-labelledby="title desc">
  <title id="title">Writing, automation and creative leverage</title>
  <desc id="desc">Language systems as leverage for writing and operations</desc>
  
  <defs>
    <radialGradient id="glow" cx="59%" cy="19%" r="80%">
      <stop offset="0%" stop-color="#7ccf78" stop-opacity="0.42"/>
      <stop offset="48%" stop-color="#e9e6ff" stop-opacity="0.9"/>
      <stop offset="100%" stop-color="#e9e6ff"/>
    </radialGradient>
    <linearGradient id="panel" x1="0" y1="0" x2="1" y2="1">
      <stop offset="0%" stop-color="#ffffff" stop-opacity="0.88"/>
      <stop offset="100%" stop-color="#fbfaf7" stop-opacity="0.64"/>
    </linearGradient>
    <filter id="shadow" x="-30%" y="-30%" width="160%" height="160%">
      <feDropShadow dx="0" dy="28" stdDeviation="30" flood-color="#0b0b09" flood-opacity="0.17"/>
    </filter>
    
    <filter id="grain">
      <feTurbulence type="fractalNoise" baseFrequency="0.78" numOctaves="3" stitchTiles="stitch"/>
      <feColorMatrix type="saturate" values="0"/>
      <feComponentTransfer><feFuncA type="table" tableValues="0 0.069"/></feComponentTransfer>
    </filter>
  </defs>
  
      <rect width="1200" height="630" fill="#0b0b09"/>
      <rect width="1200" height="630" fill="url(#glow)" opacity="0.42"/>
      <rect width="1200" height="630" filter="url(#grain)" opacity="0.7"/>
  
      <rect x="78" y="72" width="1044" height="486" rx="42" fill="url(#glow)" filter="url(#shadow)"/>
      <path d="M172 160 H556 V456 H172Z M644 160 H1028 V456 H644Z" fill="#fbfaf7" stroke="#c8c3b7" stroke-width="3"/>
      <rect x="210" y="206" width="234" height="12" rx="6" fill="#8a63ff" opacity="0.9"/><rect x="670" y="206" width="287" height="12" rx="6" fill="#0b0b09" opacity="0.36"/><rect x="210" y="248" width="180" height="12" rx="6" fill="#0b0b09" opacity="0.36"/><rect x="670" y="248" width="233" height="12" rx="6" fill="#8a63ff" opacity="0.9"/><rect x="210" y="290" width="286" height="12" rx="6" fill="#0b0b09" opacity="0.36"/><rect x="670" y="290" width="179" height="12" rx="6" fill="#0b0b09" opacity="0.36"/><rect x="210" y="332" width="232" height="12" rx="6" fill="#8a63ff" opacity="0.9"/><rect x="670" y="332" width="285" height="12" rx="6" fill="#0b0b09" opacity="0.36"/><rect x="210" y="374" width="178" height="12" rx="6" fill="#0b0b09" opacity="0.36"/><rect x="670" y="374" width="231" height="12" rx="6" fill="#8a63ff" opacity="0.9"/>
      <path d="M552 308 H650 M650 308 L620 278 M650 308 L620 338" stroke="#7ccf78" stroke-width="8" fill="none" stroke-linecap="round"/>
    
  
    <g transform="translate(990 486)">
      <rect width="110" height="74" rx="0" fill="#fbfaf7" stroke="#c8c3b7" stroke-width="2"/>
      <text x="22" y="48" font-family="Arial, Helvetica, sans-serif" font-size="28" font-weight="800" fill="#8a63ff">MSG</text>
    </g>
</svg>
