<svg xmlns="http://www.w3.org/2000/svg" width="1200" height="630" viewBox="0 0 1200 630" role="img" aria-labelledby="title desc">
  <title id="title">Business workflows as design problems</title>
  <desc id="desc">Workflow design as product design</desc>
  
  <defs>
    <radialGradient id="glow" cx="40%" cy="-4%" r="80%">
      <stop offset="0%" stop-color="#7ccf78" stop-opacity="0.42"/>
      <stop offset="48%" stop-color="#edf2e6" stop-opacity="0.9"/>
      <stop offset="100%" stop-color="#edf2e6"/>
    </radialGradient>
    <linearGradient id="panel" x1="0" y1="0" x2="1" y2="1">
      <stop offset="0%" stop-color="#ffffff" stop-opacity="0.88"/>
      <stop offset="100%" stop-color="#fbfaf7" stop-opacity="0.64"/>
    </linearGradient>
    <filter id="shadow" x="-30%" y="-30%" width="160%" height="160%">
      <feDropShadow dx="0" dy="28" stdDeviation="30" flood-color="#0b0b09" flood-opacity="0.17"/>
    </filter>
    
    <filter id="grain">
      <feTurbulence type="fractalNoise" baseFrequency="0.79" numOctaves="3" stitchTiles="stitch"/>
      <feColorMatrix type="saturate" values="0"/>
      <feComponentTransfer><feFuncA type="table" tableValues="0 0.056999999999999995"/></feComponentTransfer>
    </filter>
  </defs>
  
      <rect width="1200" height="630" fill="#edf2e6"/>
      <path d="M0 0V630 M69 0V630 M138 0V630 M207 0V630 M276 0V630 M345 0V630 M414 0V630 M483 0V630 M552 0V630 M621 0V630 M690 0V630 M759 0V630 M828 0V630 M897 0V630 M966 0V630 M1035 0V630 M1104 0V630 M1173 0V630 M0 0H1200 M0 69H1200 M0 138H1200 M0 207H1200 M0 276H1200 M0 345H1200 M0 414H1200 M0 483H1200 M0 552H1200 M0 621H1200" stroke="#c8c3b7" stroke-width="1" opacity="0.46"/>
      <rect width="1200" height="630" fill="url(#glow)" opacity="0.56"/>
      <rect width="1200" height="630" filter="url(#grain)" opacity="0.75"/>
  
      <rect x="96" y="90" width="1008" height="450" rx="0" fill="#fbfaf7" stroke="#c8c3b7" filter="url(#shadow)"/>
      <path d="M164 168 H1036 M164 462 H1036" stroke="#0b0b09" stroke-width="4"/>
      <rect x="178" y="216" width="64" height="38" rx="10" fill="#0b0b09" opacity="0.9"/><rect x="284" y="216" width="64" height="38" rx="10" fill="#c8c3b7" opacity="0.62"/><rect x="390" y="216" width="64" height="38" rx="10" fill="#c8c3b7" opacity="0.62"/><rect x="496" y="216" width="64" height="38" rx="10" fill="#7ccf78" opacity="0.9"/><rect x="602" y="216" width="64" height="38" rx="10" fill="#0b0b09" opacity="0.62"/><rect x="708" y="216" width="64" height="38" rx="10" fill="#c8c3b7" opacity="0.62"/><rect x="814" y="216" width="64" height="38" rx="10" fill="#7ccf78" opacity="0.9"/><rect x="920" y="216" width="64" height="38" rx="10" fill="#c8c3b7" opacity="0.62"/><rect x="178" y="282" width="64" height="38" rx="10" fill="#0b0b09" opacity="0.62"/><rect x="284" y="282" width="64" height="38" rx="10" fill="#7ccf78" opacity="0.9"/><rect x="390" y="282" width="64" height="38" rx="10" fill="#c8c3b7" opacity="0.62"/><rect x="496" y="282" width="64" height="38" rx="10" fill="#c8c3b7" opacity="0.62"/><rect x="602" y="282" width="64" height="38" rx="10" fill="#0b0b09" opacity="0.9"/><rect x="708" y="282" width="64" height="38" rx="10" fill="#c8c3b7" opacity="0.62"/><rect x="814" y="282" width="64" height="38" rx="10" fill="#c8c3b7" opacity="0.62"/><rect x="920" y="282" width="64" height="38" rx="10" fill="#7ccf78" opacity="0.9"/><rect x="178" y="348" width="64" height="38" rx="10" fill="#0b0b09" opacity="0.62"/><rect x="284" y="348" width="64" height="38" rx="10" fill="#c8c3b7" opacity="0.62"/><rect x="390" y="348" width="64" height="38" rx="10" fill="#7ccf78" opacity="0.9"/><rect x="496" y="348" width="64" height="38" rx="10" fill="#c8c3b7" opacity="0.62"/><rect x="602" y="348" width="64" height="38" rx="10" fill="#0b0b09" opacity="0.62"/><rect x="708" y="348" width="64" height="38" rx="10" fill="#7ccf78" opacity="0.9"/><rect x="814" y="348" width="64" height="38" rx="10" fill="#c8c3b7" opacity="0.62"/><rect x="920" y="348" width="64" height="38" rx="10" fill="#c8c3b7" opacity="0.62"/>
    
  
    <g transform="translate(990 486)">
      <rect width="110" height="74" rx="0" fill="#fbfaf7" stroke="#c8c3b7" stroke-width="2"/>
      <text x="22" y="48" font-family="Arial, Helvetica, sans-serif" font-size="28" font-weight="800" fill="#0b0b09">MSG</text>
    </g>
</svg>
