<svg xmlns="http://www.w3.org/2000/svg" width="1200" height="630" viewBox="0 0 1200 630" role="img" aria-labelledby="title desc">
  <title id="title">Client delivery and repeatability</title>
  <desc id="desc">Delivery becoming repeatable through systems</desc>
  
    <defs>
      <linearGradient id="backgroundGradient" x1="0" y1="0" x2="1" y2="1">
        <stop offset="0%" stop-color="#f7efe7"/>
        <stop offset="58%" stop-color="#e8e6df"/>
        <stop offset="100%" stop-color="#c8d7ff"/>
      </linearGradient>
      <radialGradient id="fieldGradient" cx="68%" cy="42%" r="70%">
        <stop offset="0%" stop-color="#d96fe8" stop-opacity="0.92"/>
        <stop offset="55%" stop-color="#2f7cff" stop-opacity="0.54"/>
        <stop offset="100%" stop-color="#6fd3ff" stop-opacity="0.86"/>
      </radialGradient>
      <linearGradient id="waveGradient" x1="0" y1="0" x2="1" y2="1">
        <stop offset="0%" stop-color="#2f7cff"/>
        <stop offset="50%" stop-color="#c8d7ff"/>
        <stop offset="100%" stop-color="#0b0b09"/>
      </linearGradient>
      <filter id="softShadow" x="-20%" y="-20%" width="140%" height="140%">
        <feDropShadow dx="0" dy="28" stdDeviation="26" flood-color="#0b0b09" flood-opacity="0.18"/>
      </filter>
    </defs>
  
  <rect width="1200" height="630" fill="url(#backgroundGradient)"/>
  <rect x="34" y="34" width="1132" height="562" rx="0" fill="rgba(251,250,247,0.76)" stroke="#c8c3b7" stroke-width="2"/>
  <circle cx="896" cy="172" r="264" fill="#2f7cff" opacity="0.18"/>
  <circle cx="984" cy="286" r="174" fill="#0b0b09" opacity="0.16"/>
  <g filter="url(#softShadow)">
    
    <rect x="572" y="90" width="568" height="470" rx="34" fill="url(#waveGradient)"/>
    <path d="M626 242 C704 138 780 350 868 242 S1038 136 1114 242" fill="none" stroke="#ffffff" stroke-width="7" opacity="0.86"/>
    <path d="M626 342 C704 238 780 450 868 342 S1038 236 1114 342" fill="none" stroke="#0b0b09" stroke-width="7" opacity="0.76"/>
    <path d="M626 442 C704 338 780 550 868 442 S1038 336 1114 442" fill="none" stroke="#0b0b09" stroke-width="5" opacity="0.66"/>
    <rect x="720" y="160" width="260" height="82" rx="41" fill="#fbfaf7" opacity="0.9"/>
    <circle cx="766" cy="201" r="16" fill="#2f7cff"/>
    <text x="802" y="209" font-family="Arial, Helvetica, sans-serif" font-size="25" font-weight="700" fill="#0b0b09">Signal</text>
  
  </g>
  <rect x="70" y="76" width="184" height="48" rx="24" fill="rgba(255,255,255,0.72)" stroke="#c8c3b7"/>
  <text x="96" y="107" font-family="Arial, Helvetica, sans-serif" font-size="16" font-weight="700" letter-spacing="3.4" fill="#0b0b09">PRODUCT</text>
  <text x="74" y="184" font-family="Georgia, 'Times New Roman', serif" font-size="32" fill="#706c64">JUL 2019</text>
  <text x="72" y="260" font-family="Georgia, 'Times New Roman', serif" font-size="62" font-weight="500" fill="#0b0b09">Client delivery</text>
  <text x="72" y="324" font-family="Georgia, 'Times New Roman', serif" font-size="62" font-weight="500" fill="#0b0b09">and repeatability</text>
  <text x="74" y="536" font-family="Arial, Helvetica, sans-serif" font-size="22" fill="#706c64">Delivery becoming repeatable through systems</text>
  <rect x="1030" y="500" width="74" height="58" rx="0" fill="#fbfaf7" stroke="#c8c3b7" stroke-width="2"/>
  <text x="1048" y="537" font-family="Arial, Helvetica, sans-serif" font-size="25" font-weight="800" fill="#0b0b09">MS</text>
</svg>
