<svg xmlns="http://www.w3.org/2000/svg" width="1200" height="630" viewBox="0 0 1200 630" role="img" aria-labelledby="title desc">
  <title id="title">Writing, automation and creative leverage</title>
  <desc id="desc">Language systems as leverage for writing and operations</desc>
  
    <defs>
      <linearGradient id="backgroundGradient" x1="0" y1="0" x2="1" y2="1">
        <stop offset="0%" stop-color="#f3e0dc"/>
        <stop offset="58%" stop-color="#e8e6df"/>
        <stop offset="100%" stop-color="#b8d7ff"/>
      </linearGradient>
      <radialGradient id="fieldGradient" cx="68%" cy="42%" r="70%">
        <stop offset="0%" stop-color="#9be15d" stop-opacity="0.92"/>
        <stop offset="55%" stop-color="#e86bd6" stop-opacity="0.54"/>
        <stop offset="100%" stop-color="#f7f1e7" stop-opacity="0.86"/>
      </radialGradient>
      <linearGradient id="waveGradient" x1="0" y1="0" x2="1" y2="1">
        <stop offset="0%" stop-color="#e86bd6"/>
        <stop offset="50%" stop-color="#b8d7ff"/>
        <stop offset="100%" stop-color="#4f7cff"/>
      </linearGradient>
      <filter id="softShadow" x="-20%" y="-20%" width="140%" height="140%">
        <feDropShadow dx="0" dy="28" stdDeviation="26" flood-color="#0b0b09" flood-opacity="0.18"/>
      </filter>
    </defs>
  
  <rect width="1200" height="630" fill="url(#backgroundGradient)"/>
  <rect x="34" y="34" width="1132" height="562" rx="0" fill="rgba(251,250,247,0.76)" stroke="#c8c3b7" stroke-width="2"/>
  <circle cx="894" cy="254" r="226" fill="#e86bd6" opacity="0.18"/>
  <circle cx="846" cy="304" r="166" fill="#4f7cff" opacity="0.16"/>
  <g filter="url(#softShadow)">
    
    <rect x="586" y="118" width="228" height="292" rx="28" fill="#fbfaf7" stroke="#c8c3b7"/>
    <rect x="846" y="118" width="228" height="292" rx="28" fill="#11110f"/>
    <rect x="630" y="162" width="140" height="18" rx="9" fill="#0b0b09"/>
    <rect x="630" y="206" width="104" height="104" rx="24" fill="#b8d7ff"/>
    <rect x="630" y="336" width="140" height="12" rx="6" fill="#c8c3b7"/>
    <rect x="890" y="162" width="140" height="18" rx="9" fill="#b8d7ff"/>
    <rect x="890" y="206" width="104" height="104" rx="24" fill="#4f7cff"/>
    <rect x="890" y="336" width="140" height="12" rx="6" fill="#55524d"/>
    <path d="M730 460 H930" stroke="#e86bd6" stroke-width="8" stroke-linecap="round"/>
    <path d="M930 460 L902 432 M930 460 L902 488" stroke="#e86bd6" stroke-width="8" stroke-linecap="round"/>
  
  </g>
  <rect x="70" y="76" width="184" height="48" rx="24" fill="rgba(255,255,255,0.72)" stroke="#c8c3b7"/>
  <text x="96" y="107" font-family="Arial, Helvetica, sans-serif" font-size="16" font-weight="700" letter-spacing="3.4" fill="#0b0b09">RESEARCH</text>
  <text x="74" y="184" font-family="Georgia, 'Times New Roman', serif" font-size="32" fill="#706c64">MAR 2019</text>
  <text x="72" y="260" font-family="Georgia, 'Times New Roman', serif" font-size="62" font-weight="500" fill="#0b0b09">Writing, automation</text>
  <text x="72" y="324" font-family="Georgia, 'Times New Roman', serif" font-size="62" font-weight="500" fill="#0b0b09">and creative leverage</text>
  <text x="74" y="536" font-family="Arial, Helvetica, sans-serif" font-size="22" fill="#706c64">Language systems as leverage for writing and</text>
  <rect x="1030" y="500" width="74" height="58" rx="0" fill="#fbfaf7" stroke="#c8c3b7" stroke-width="2"/>
  <text x="1048" y="537" font-family="Arial, Helvetica, sans-serif" font-size="25" font-weight="800" fill="#4f7cff">MS</text>
</svg>
