<svg xmlns="http://www.w3.org/2000/svg" width="1200" height="630" viewBox="0 0 1200 630" role="img" aria-labelledby="title desc">
  <title id="title">Accountability as product thinking</title>
  <desc id="desc">Accountability as a product surface</desc>
  
  <defs>
    <radialGradient id="glow" cx="51%" cy="25%" r="80%">
      <stop offset="0%" stop-color="#7ccf78" stop-opacity="0.42"/>
      <stop offset="48%" stop-color="#fff0e8" stop-opacity="0.9"/>
      <stop offset="100%" stop-color="#fff0e8"/>
    </radialGradient>
    <linearGradient id="panel" x1="0" y1="0" x2="1" y2="1">
      <stop offset="0%" stop-color="#ffffff" stop-opacity="0.88"/>
      <stop offset="100%" stop-color="#fbfaf7" stop-opacity="0.64"/>
    </linearGradient>
    <filter id="shadow" x="-30%" y="-30%" width="160%" height="160%">
      <feDropShadow dx="0" dy="28" stdDeviation="30" flood-color="#0b0b09" flood-opacity="0.17"/>
    </filter>
    
    <filter id="grain">
      <feTurbulence type="fractalNoise" baseFrequency="0.8" numOctaves="3" stitchTiles="stitch"/>
      <feColorMatrix type="saturate" values="0"/>
      <feComponentTransfer><feFuncA type="table" tableValues="0 0.069"/></feComponentTransfer>
    </filter>
  </defs>
  
      <rect width="1200" height="630" fill="#fff0e8"/>
      <circle cx="236" cy="292" r="360" fill="#7ccf78" opacity="0.42"/>
      <circle cx="770" cy="517" r="330" fill="#ff4f64" opacity="0.26"/>
      <rect width="1200" height="630" fill="url(#glow)" opacity="0.54"/>
      <rect width="1200" height="630" filter="url(#grain)" opacity="0.8"/>
  
      <rect x="86" y="74" width="1028" height="482" rx="42" fill="url(#glow)" filter="url(#shadow)"/>
      <circle cx="278" cy="310" r="128" fill="#fbfaf7" opacity="0.92"/>
      <circle cx="600" cy="310" r="128" fill="#ff4f64" opacity="0.72"/>
      <circle cx="920" cy="310" r="128" fill="#7ccf78" opacity="0.72"/>
      <path d="M160 410 C278 226 414 454 560 292 S826 184 1038 392" stroke="#0b0b09" stroke-width="8" fill="none" opacity="0.72"/>
      <circle cx="560" cy="292" r="22" fill="#fbfaf7"/><circle cx="1038" cy="392" r="22" fill="#0b0b09"/>
    
  
    <g transform="translate(990 486)">
      <rect width="110" height="74" rx="0" fill="#fbfaf7" stroke="#c8c3b7" stroke-width="2"/>
      <text x="22" y="48" font-family="Arial, Helvetica, sans-serif" font-size="28" font-weight="800" fill="#ff4f64">MSG</text>
    </g>
</svg>
