<svg xmlns="http://www.w3.org/2000/svg" width="1200" height="630" viewBox="0 0 1200 630" role="img" aria-labelledby="title desc">
  <title id="title">Operating systems for small teams</title>
  <desc id="desc">Small teams needing operating systems</desc>
  
  <defs>
    <radialGradient id="glow" cx="49%" cy="24%" r="80%">
      <stop offset="0%" stop-color="#7ccf78" stop-opacity="0.42"/>
      <stop offset="48%" stop-color="#edf2e6" stop-opacity="0.9"/>
      <stop offset="100%" stop-color="#edf2e6"/>
    </radialGradient>
    <linearGradient id="panel" x1="0" y1="0" x2="1" y2="1">
      <stop offset="0%" stop-color="#ffffff" stop-opacity="0.88"/>
      <stop offset="100%" stop-color="#fbfaf7" stop-opacity="0.64"/>
    </linearGradient>
    <filter id="shadow" x="-30%" y="-30%" width="160%" height="160%">
      <feDropShadow dx="0" dy="28" stdDeviation="30" flood-color="#0b0b09" flood-opacity="0.17"/>
    </filter>
    
    <filter id="grain">
      <feTurbulence type="fractalNoise" baseFrequency="0.78" numOctaves="3" stitchTiles="stitch"/>
      <feColorMatrix type="saturate" values="0"/>
      <feComponentTransfer><feFuncA type="table" tableValues="0 0.069"/></feComponentTransfer>
    </filter>
  </defs>
  
      <rect width="1200" height="630" fill="#edf2e6"/>
      <path d="M0 0V630 M68 0V630 M136 0V630 M204 0V630 M272 0V630 M340 0V630 M408 0V630 M476 0V630 M544 0V630 M612 0V630 M680 0V630 M748 0V630 M816 0V630 M884 0V630 M952 0V630 M1020 0V630 M1088 0V630 M1156 0V630 M0 0H1200 M0 68H1200 M0 136H1200 M0 204H1200 M0 272H1200 M0 340H1200 M0 408H1200 M0 476H1200 M0 544H1200 M0 612H1200" stroke="#c8c3b7" stroke-width="1" opacity="0.46"/>
      <rect width="1200" height="630" fill="url(#glow)" opacity="0.56"/>
      <rect width="1200" height="630" filter="url(#grain)" opacity="0.75"/>
  
      <rect x="90" y="82" width="1020" height="466" rx="38" fill="#11110f" filter="url(#shadow)"/>
      <rect x="158" y="176" width="150" height="208" rx="28" fill="#fbfaf7" opacity="0.94"/><rect x="388" y="213" width="150" height="251" rx="28" fill="#7ccf78" opacity="0.86"/><rect x="618" y="250" width="150" height="174" rx="28" fill="#fbfaf7" opacity="0.94"/><rect x="848" y="167" width="150" height="217" rx="28" fill="#7ccf78" opacity="0.86"/>
      <path d="M164 454 H1038" stroke="#fbfaf7" stroke-width="5" opacity="0.56"/>
      <path d="M208 190 C404 110 514 272 686 176 S890 132 1010 222" stroke="#0b0b09" stroke-width="7" fill="none"/>
    
  
    <g transform="translate(990 486)">
      <rect width="110" height="74" rx="0" fill="#fbfaf7" stroke="#c8c3b7" stroke-width="2"/>
      <text x="22" y="48" font-family="Arial, Helvetica, sans-serif" font-size="28" font-weight="800" fill="#0b0b09">MSG</text>
    </g>
</svg>
