<svg xmlns="http://www.w3.org/2000/svg" width="1200" height="630" viewBox="0 0 1200 630" role="img" aria-labelledby="title desc">
  <title id="title">From services to systems</title>
  <desc id="desc">Service work becoming system design</desc>
  
  <defs>
    <radialGradient id="glow" cx="42%" cy="1%" r="80%">
      <stop offset="0%" stop-color="#3977ff" stop-opacity="0.42"/>
      <stop offset="48%" stop-color="#f0e6df" stop-opacity="0.9"/>
      <stop offset="100%" stop-color="#f0e6df"/>
    </radialGradient>
    <linearGradient id="panel" x1="0" y1="0" x2="1" y2="1">
      <stop offset="0%" stop-color="#ffffff" stop-opacity="0.88"/>
      <stop offset="100%" stop-color="#fbfaf7" stop-opacity="0.64"/>
    </linearGradient>
    <filter id="shadow" x="-30%" y="-30%" width="160%" height="160%">
      <feDropShadow dx="0" dy="28" stdDeviation="30" flood-color="#0b0b09" flood-opacity="0.17"/>
    </filter>
    
    <filter id="grain">
      <feTurbulence type="fractalNoise" baseFrequency="0.81" numOctaves="3" stitchTiles="stitch"/>
      <feColorMatrix type="saturate" values="0"/>
      <feComponentTransfer><feFuncA type="table" tableValues="0 0.081"/></feComponentTransfer>
    </filter>
  </defs>
  
    <rect width="1200" height="630" fill="#f0e6df"/>
    <rect width="1200" height="630" fill="url(#glow)" opacity="0.74"/>
    <rect width="1200" height="630" filter="url(#grain)" opacity="0.66"/>
  
      <rect x="108" y="92" width="984" height="446" rx="36" fill="#fbfaf7" filter="url(#shadow)"/>
      <path d="M180 414 H1026" stroke="#0b0b09" stroke-width="5"/>
      <circle cx="210" cy="267" r="24" fill="#c69386" opacity="0.84"/><circle cx="306" cy="296" r="36" fill="#3977ff" opacity="0.84"/><circle cx="402" cy="325" r="48" fill="#0b0b09" opacity="0.84"/><circle cx="498" cy="354" r="24" fill="#c69386" opacity="0.84"/><circle cx="594" cy="383" r="36" fill="#3977ff" opacity="0.84"/><circle cx="690" cy="232" r="48" fill="#0b0b09" opacity="0.84"/><circle cx="786" cy="261" r="24" fill="#c69386" opacity="0.84"/><circle cx="882" cy="290" r="36" fill="#3977ff" opacity="0.84"/><circle cx="978" cy="319" r="48" fill="#0b0b09" opacity="0.84"/>
      <path d="M210 400 C334 236 450 452 578 286 S802 196 978 346" stroke="#c69386" stroke-width="7" fill="none" opacity="0.76"/>
    
  
    <g transform="translate(990 486)">
      <rect width="110" height="74" rx="0" fill="#fbfaf7" stroke="#c8c3b7" stroke-width="2"/>
      <text x="22" y="48" font-family="Arial, Helvetica, sans-serif" font-size="28" font-weight="800" fill="#c69386">MSG</text>
    </g>
</svg>
