<svg xmlns="http://www.w3.org/2000/svg" width="1200" height="630" viewBox="0 0 1200 630" role="img" aria-labelledby="title desc">
  <title id="title">Commercial workflows move online</title>
  <desc id="desc">Commercial work shifting towards software-led systems</desc>
  
  <defs>
    <radialGradient id="glow" cx="69%" cy="6%" r="80%">
      <stop offset="0%" stop-color="#7ccf78" stop-opacity="0.42"/>
      <stop offset="48%" stop-color="#edf2e6" stop-opacity="0.9"/>
      <stop offset="100%" stop-color="#edf2e6"/>
    </radialGradient>
    <linearGradient id="panel" x1="0" y1="0" x2="1" y2="1">
      <stop offset="0%" stop-color="#ffffff" stop-opacity="0.88"/>
      <stop offset="100%" stop-color="#fbfaf7" stop-opacity="0.64"/>
    </linearGradient>
    <filter id="shadow" x="-30%" y="-30%" width="160%" height="160%">
      <feDropShadow dx="0" dy="28" stdDeviation="30" flood-color="#0b0b09" flood-opacity="0.17"/>
    </filter>
    
    <filter id="grain">
      <feTurbulence type="fractalNoise" baseFrequency="0.78" numOctaves="3" stitchTiles="stitch"/>
      <feColorMatrix type="saturate" values="0"/>
      <feComponentTransfer><feFuncA type="table" tableValues="0 0.045"/></feComponentTransfer>
    </filter>
  </defs>
  
      <rect width="1200" height="630" fill="#edf2e6"/>
      <path d="M0 0V630 M52 0V630 M104 0V630 M156 0V630 M208 0V630 M260 0V630 M312 0V630 M364 0V630 M416 0V630 M468 0V630 M520 0V630 M572 0V630 M624 0V630 M676 0V630 M728 0V630 M780 0V630 M832 0V630 M884 0V630 M936 0V630 M988 0V630 M1040 0V630 M1092 0V630 M1144 0V630 M1196 0V630 M0 0H1200 M0 52H1200 M0 104H1200 M0 156H1200 M0 208H1200 M0 260H1200 M0 312H1200 M0 364H1200 M0 416H1200 M0 468H1200 M0 520H1200 M0 572H1200 M0 624H1200" stroke="#c8c3b7" stroke-width="1" opacity="0.46"/>
      <rect width="1200" height="630" fill="url(#glow)" opacity="0.56"/>
      <rect width="1200" height="630" filter="url(#grain)" opacity="0.75"/>
  
    <rect x="94" y="94" width="1012" height="442" rx="36" fill="url(#panel)" stroke="#c8c3b7" filter="url(#shadow)"/>
    <rect x="160" y="204" width="112" height="154" rx="20" fill="#0b0b09" opacity="0.9"/><rect x="338" y="215" width="112" height="171" rx="20" fill="#7ccf78" opacity="0.72"/><rect x="516" y="226" width="112" height="188" rx="20" fill="#0b0b09" opacity="0.9"/><rect x="694" y="237" width="112" height="205" rx="20" fill="#7ccf78" opacity="0.72"/><rect x="872" y="248" width="112" height="222" rx="20" fill="#0b0b09" opacity="0.9"/>
    <path d="M144 470 H1058" stroke="#0b0b09" stroke-width="6"/>
    <path d="M210 148 C360 80 500 154 618 124 S860 68 1010 150" fill="none" stroke="#0b0b09" stroke-width="4" opacity="0.46"/>
  
  
    <g transform="translate(990 486)">
      <rect width="110" height="74" rx="0" fill="#fbfaf7" stroke="#c8c3b7" stroke-width="2"/>
      <text x="22" y="48" font-family="Arial, Helvetica, sans-serif" font-size="28" font-weight="800" fill="#0b0b09">MSG</text>
    </g>
</svg>
