<svg xmlns="http://www.w3.org/2000/svg" width="1200" height="630" viewBox="0 0 1200 630" role="img" aria-labelledby="title desc">
  <title id="title">Repeatable delivery under pressure</title>
  <desc id="desc">Repeatable delivery when conditions are unstable</desc>
  
    <defs>
      <linearGradient id="backgroundGradient" x1="0" y1="0" x2="1" y2="1">
        <stop offset="0%" stop-color="#f3e0dc"/>
        <stop offset="58%" stop-color="#e8e6df"/>
        <stop offset="100%" stop-color="#c8d7ff"/>
      </linearGradient>
      <radialGradient id="fieldGradient" cx="68%" cy="42%" r="70%">
        <stop offset="0%" stop-color="#9be15d" stop-opacity="0.92"/>
        <stop offset="55%" stop-color="#2f7cff" stop-opacity="0.54"/>
        <stop offset="100%" stop-color="#f7f1e7" stop-opacity="0.86"/>
      </radialGradient>
      <linearGradient id="waveGradient" x1="0" y1="0" x2="1" y2="1">
        <stop offset="0%" stop-color="#2f7cff"/>
        <stop offset="50%" stop-color="#c8d7ff"/>
        <stop offset="100%" stop-color="#0b0b09"/>
      </linearGradient>
      <filter id="softShadow" x="-20%" y="-20%" width="140%" height="140%">
        <feDropShadow dx="0" dy="28" stdDeviation="26" flood-color="#0b0b09" flood-opacity="0.18"/>
      </filter>
    </defs>
  
  <rect width="1200" height="630" fill="url(#backgroundGradient)"/>
  <rect x="34" y="34" width="1132" height="562" rx="0" fill="rgba(251,250,247,0.76)" stroke="#c8c3b7" stroke-width="2"/>
  <circle cx="869" cy="239" r="251" fill="#2f7cff" opacity="0.18"/>
  <circle cx="951" cy="339" r="131" fill="#0b0b09" opacity="0.16"/>
  <g filter="url(#softShadow)">
    
    <path d="M600 116 L1092 116 L1092 514 L600 514Z" fill="url(#fieldGradient)" opacity="0.96"/>
    <path d="M600 412 L1092 152 M600 334 L1092 74 M600 490 L1092 230" stroke="#ffffff" opacity="0.22"/>
    <rect x="640" y="268" width="148" height="86" fill="none" stroke="#ffffff" stroke-width="3" opacity="0.75"/><rect x="746" y="128" width="148" height="86" fill="none" stroke="#2f7cff" stroke-width="3" opacity="0.75"/><rect x="852" y="198" width="148" height="86" fill="none" stroke="#ffffff" stroke-width="3" opacity="0.75"/><rect x="958" y="268" width="148" height="86" fill="none" stroke="#2f7cff" stroke-width="3" opacity="0.75"/>
    <path d="M686 314 C786 242 900 410 1038 284" fill="none" stroke="#0b0b09" stroke-width="4" stroke-dasharray="8 15"/>
    <circle cx="686" cy="314" r="12" fill="#0b0b09"/>
    <circle cx="1038" cy="284" r="12" fill="#0b0b09"/>
  
  </g>
  <rect x="70" y="76" width="184" height="48" rx="24" fill="rgba(255,255,255,0.72)" stroke="#c8c3b7"/>
  <text x="96" y="107" font-family="Arial, Helvetica, sans-serif" font-size="16" font-weight="700" letter-spacing="3.4" fill="#0b0b09">PRODUCT</text>
  <text x="74" y="184" font-family="Georgia, 'Times New Roman', serif" font-size="32" fill="#706c64">OCT 2020</text>
  <text x="72" y="260" font-family="Georgia, 'Times New Roman', serif" font-size="62" font-weight="500" fill="#0b0b09">Repeatable delivery</text>
  <text x="72" y="324" font-family="Georgia, 'Times New Roman', serif" font-size="62" font-weight="500" fill="#0b0b09">under pressure</text>
  <text x="74" y="536" font-family="Arial, Helvetica, sans-serif" font-size="22" fill="#706c64">Repeatable delivery when conditions are unstable</text>
  <rect x="1030" y="500" width="74" height="58" rx="0" fill="#fbfaf7" stroke="#c8c3b7" stroke-width="2"/>
  <text x="1048" y="537" font-family="Arial, Helvetica, sans-serif" font-size="25" font-weight="800" fill="#0b0b09">MS</text>
</svg>
