<svg xmlns="http://www.w3.org/2000/svg" width="1200" height="630" viewBox="0 0 1200 630" role="img" aria-labelledby="title desc">
  <title id="title">Tools when conditions change</title>
  <desc id="desc">Tools as resilience during change</desc>
  
    <defs>
      <linearGradient id="backgroundGradient" x1="0" y1="0" x2="1" y2="1">
        <stop offset="0%" stop-color="#fff0c7"/>
        <stop offset="58%" stop-color="#e8e6df"/>
        <stop offset="100%" stop-color="#c8d7ff"/>
      </linearGradient>
      <radialGradient id="fieldGradient" cx="68%" cy="42%" r="70%">
        <stop offset="0%" stop-color="#ff7a45" stop-opacity="0.92"/>
        <stop offset="55%" stop-color="#2f7cff" stop-opacity="0.54"/>
        <stop offset="100%" stop-color="#11110f" stop-opacity="0.86"/>
      </radialGradient>
      <linearGradient id="waveGradient" x1="0" y1="0" x2="1" y2="1">
        <stop offset="0%" stop-color="#2f7cff"/>
        <stop offset="50%" stop-color="#c8d7ff"/>
        <stop offset="100%" stop-color="#0b0b09"/>
      </linearGradient>
      <filter id="softShadow" x="-20%" y="-20%" width="140%" height="140%">
        <feDropShadow dx="0" dy="28" stdDeviation="26" flood-color="#0b0b09" flood-opacity="0.18"/>
      </filter>
    </defs>
  
  <rect width="1200" height="630" fill="url(#backgroundGradient)"/>
  <rect x="34" y="34" width="1132" height="562" rx="0" fill="rgba(251,250,247,0.76)" stroke="#c8c3b7" stroke-width="2"/>
  <circle cx="1002" cy="166" r="298" fill="#2f7cff" opacity="0.18"/>
  <circle cx="958" cy="292" r="178" fill="#0b0b09" opacity="0.16"/>
  <g filter="url(#softShadow)">
    
    <rect x="586" y="118" width="228" height="292" rx="28" fill="#fbfaf7" stroke="#c8c3b7"/>
    <rect x="846" y="118" width="228" height="292" rx="28" fill="#11110f"/>
    <rect x="630" y="162" width="140" height="18" rx="9" fill="#0b0b09"/>
    <rect x="630" y="206" width="104" height="104" rx="24" fill="#c8d7ff"/>
    <rect x="630" y="336" width="140" height="12" rx="6" fill="#c8c3b7"/>
    <rect x="890" y="162" width="140" height="18" rx="9" fill="#c8d7ff"/>
    <rect x="890" y="206" width="104" height="104" rx="24" fill="#0b0b09"/>
    <rect x="890" y="336" width="140" height="12" rx="6" fill="#55524d"/>
    <path d="M730 460 H930" stroke="#2f7cff" stroke-width="8" stroke-linecap="round"/>
    <path d="M930 460 L902 432 M930 460 L902 488" stroke="#2f7cff" stroke-width="8" stroke-linecap="round"/>
  <path d="M620 510 H1080" stroke="#0b0b09" stroke-width="4"/><circle cx="700" cy="510" r="15" fill="#0b0b09"/><circle cx="850" cy="510" r="15" fill="#2f7cff"/><circle cx="1000" cy="510" r="15" fill="#0b0b09"/>
  </g>
  <rect x="70" y="76" width="184" height="48" rx="24" fill="rgba(255,255,255,0.72)" stroke="#c8c3b7"/>
  <text x="96" y="107" font-family="Arial, Helvetica, sans-serif" font-size="16" font-weight="700" letter-spacing="3.4" fill="#0b0b09">PRODUCT</text>
  <text x="74" y="184" font-family="Georgia, 'Times New Roman', serif" font-size="32" fill="#706c64">MAR 2020</text>
  <text x="72" y="260" font-family="Georgia, 'Times New Roman', serif" font-size="62" font-weight="500" fill="#0b0b09">Tools when conditions</text>
  <text x="72" y="324" font-family="Georgia, 'Times New Roman', serif" font-size="62" font-weight="500" fill="#0b0b09">change</text>
  <text x="74" y="536" font-family="Arial, Helvetica, sans-serif" font-size="22" fill="#706c64">Tools as resilience during change</text>
  <rect x="1030" y="500" width="74" height="58" rx="0" fill="#fbfaf7" stroke="#c8c3b7" stroke-width="2"/>
  <text x="1048" y="537" font-family="Arial, Helvetica, sans-serif" font-size="25" font-weight="800" fill="#0b0b09">MS</text>
</svg>
