<svg xmlns="http://www.w3.org/2000/svg" width="1200" height="630" viewBox="0 0 1200 630" role="img" aria-labelledby="title desc">
  <title id="title">Human performance at home</title>
  <desc id="desc">Performance systems outside formal environments</desc>
  
  <defs>
    <radialGradient id="glow" cx="47%" cy="76%" r="80%">
      <stop offset="0%" stop-color="#7ccf78" stop-opacity="0.42"/>
      <stop offset="48%" stop-color="#fff0e8" stop-opacity="0.9"/>
      <stop offset="100%" stop-color="#fff0e8"/>
    </radialGradient>
    <linearGradient id="panel" x1="0" y1="0" x2="1" y2="1">
      <stop offset="0%" stop-color="#ffffff" stop-opacity="0.88"/>
      <stop offset="100%" stop-color="#fbfaf7" stop-opacity="0.64"/>
    </linearGradient>
    <filter id="shadow" x="-30%" y="-30%" width="160%" height="160%">
      <feDropShadow dx="0" dy="28" stdDeviation="30" flood-color="#0b0b09" flood-opacity="0.17"/>
    </filter>
    
    <filter id="grain">
      <feTurbulence type="fractalNoise" baseFrequency="0.76" numOctaves="3" stitchTiles="stitch"/>
      <feColorMatrix type="saturate" values="0"/>
      <feComponentTransfer><feFuncA type="table" tableValues="0 0.045"/></feComponentTransfer>
    </filter>
  </defs>
  
      <rect width="1200" height="630" fill="#fff0e8"/>
      <circle cx="402" cy="298" r="360" fill="#7ccf78" opacity="0.42"/>
      <circle cx="892" cy="513" r="330" fill="#ff4f64" opacity="0.26"/>
      <rect width="1200" height="630" fill="url(#glow)" opacity="0.54"/>
      <rect width="1200" height="630" filter="url(#grain)" opacity="0.8"/>
  
      <rect x="132" y="80" width="360" height="470" rx="52" fill="#11110f" filter="url(#shadow)"/>
      <rect x="178" y="142" width="268" height="334" rx="34" fill="#fbfaf7"/>
      <path d="M590 168 C704 96 830 252 1036 142" stroke="#ff4f64" stroke-width="8" fill="none" opacity="0.45"/><path d="M590 236 C704 142 830 284 1036 184" stroke="#7ccf78" stroke-width="8" fill="none" opacity="0.54"/><path d="M590 304 C704 188 830 316 1036 226" stroke="#ff4f64" stroke-width="8" fill="none" opacity="0.63"/><path d="M590 372 C704 234 830 348 1036 268" stroke="#7ccf78" stroke-width="8" fill="none" opacity="0.72"/><path d="M590 440 C704 280 830 380 1036 310" stroke="#ff4f64" stroke-width="8" fill="none" opacity="0.81"/>
      <path d="M220 376 C278 268 330 434 404 294" stroke="#ff4f64" stroke-width="8" fill="none"/>
    
  
    <g transform="translate(990 486)">
      <rect width="110" height="74" rx="0" fill="#fbfaf7" stroke="#c8c3b7" stroke-width="2"/>
      <text x="22" y="48" font-family="Arial, Helvetica, sans-serif" font-size="28" font-weight="800" fill="#ff4f64">MSG</text>
    </g>
</svg>
