<svg xmlns="http://www.w3.org/2000/svg" width="1200" height="630" viewBox="0 0 1200 630" role="img" aria-labelledby="title desc">
  <title id="title">The early case for business operating systems</title>
  <desc id="desc">Business operating systems as a category</desc>
  
  <defs>
    <radialGradient id="glow" cx="52%" cy="37%" r="80%">
      <stop offset="0%" stop-color="#3977ff" stop-opacity="0.42"/>
      <stop offset="48%" stop-color="#ece9df" stop-opacity="0.9"/>
      <stop offset="100%" stop-color="#ece9df"/>
    </radialGradient>
    <linearGradient id="panel" x1="0" y1="0" x2="1" y2="1">
      <stop offset="0%" stop-color="#ffffff" stop-opacity="0.88"/>
      <stop offset="100%" stop-color="#fbfaf7" stop-opacity="0.64"/>
    </linearGradient>
    <filter id="shadow" x="-30%" y="-30%" width="160%" height="160%">
      <feDropShadow dx="0" dy="28" stdDeviation="30" flood-color="#0b0b09" flood-opacity="0.17"/>
    </filter>
    
    <filter id="grain">
      <feTurbulence type="fractalNoise" baseFrequency="0.81" numOctaves="3" stitchTiles="stitch"/>
      <feColorMatrix type="saturate" values="0"/>
      <feComponentTransfer><feFuncA type="table" tableValues="0 0.056999999999999995"/></feComponentTransfer>
    </filter>
  </defs>
  
    <rect width="1200" height="630" fill="#ece9df"/>
    <rect width="1200" height="630" fill="url(#glow)" opacity="0.74"/>
    <rect width="1200" height="630" filter="url(#grain)" opacity="0.66"/>
  
      <rect x="86" y="78" width="1028" height="474" rx="0" fill="#fbfaf7" stroke="#c8c3b7" filter="url(#shadow)"/>
      <path d="M150 456 H1042" stroke="#0b0b09" stroke-width="5"/>
      <rect x="170" y="317" width="74" height="225" rx="10" fill="#3977ff" opacity="0.9"/><rect x="292" y="334" width="74" height="256" rx="10" fill="#0b0b09" opacity="0.74"/><rect x="414" y="181" width="74" height="117" rx="10" fill="#0b0b09" opacity="0.9"/><rect x="536" y="198" width="74" height="148" rx="10" fill="#3977ff" opacity="0.74"/><rect x="658" y="215" width="74" height="179" rx="10" fill="#0b0b09" opacity="0.9"/><rect x="780" y="232" width="74" height="210" rx="10" fill="#0b0b09" opacity="0.74"/><rect x="902" y="249" width="74" height="241" rx="10" fill="#3977ff" opacity="0.9"/>
      <path d="M154 176 C340 116 444 246 602 182 S828 116 1034 188" stroke="#0b0b09" stroke-width="6" fill="none"/>
    
  
    <g transform="translate(990 486)">
      <rect width="110" height="74" rx="0" fill="#fbfaf7" stroke="#c8c3b7" stroke-width="2"/>
      <text x="22" y="48" font-family="Arial, Helvetica, sans-serif" font-size="28" font-weight="800" fill="#0b0b09">MSG</text>
    </g>
</svg>
