<svg xmlns="http://www.w3.org/2000/svg" width="1200" height="630" viewBox="0 0 1200 630" role="img" aria-labelledby="title desc">
  <title id="title">Services, products and research separate</title>
  <desc id="desc">Year-end separation of services, products and research</desc>
  
    <defs>
      <linearGradient id="backgroundGradient" x1="0" y1="0" x2="1" y2="1">
        <stop offset="0%" stop-color="#e8e6df"/>
        <stop offset="58%" stop-color="#e8e6df"/>
        <stop offset="100%" stop-color="#f0c7bb"/>
      </linearGradient>
      <radialGradient id="fieldGradient" cx="68%" cy="42%" r="70%">
        <stop offset="0%" stop-color="#4f7cff" stop-opacity="0.92"/>
        <stop offset="55%" stop-color="#0b0b09" stop-opacity="0.54"/>
        <stop offset="100%" stop-color="#cf6f5f" stop-opacity="0.86"/>
      </radialGradient>
      <linearGradient id="waveGradient" x1="0" y1="0" x2="1" y2="1">
        <stop offset="0%" stop-color="#0b0b09"/>
        <stop offset="50%" stop-color="#f0c7bb"/>
        <stop offset="100%" stop-color="#c69386"/>
      </linearGradient>
      <filter id="softShadow" x="-20%" y="-20%" width="140%" height="140%">
        <feDropShadow dx="0" dy="28" stdDeviation="26" flood-color="#0b0b09" flood-opacity="0.18"/>
      </filter>
    </defs>
  
  <rect width="1200" height="630" fill="url(#backgroundGradient)"/>
  <rect x="34" y="34" width="1132" height="562" rx="0" fill="#11110f" stroke="#3a3833" stroke-width="2"/>
  <circle cx="1020" cy="248" r="260" fill="#0b0b09" opacity="0.18"/>
  <circle cx="920" cy="390" r="170" fill="#c69386" opacity="0.16"/>
  <g filter="url(#softShadow)">
    
    <rect x="620" y="116" width="408" height="294" rx="28" fill="#fbfaf7" stroke="#c8c3b7"/>
    <rect x="664" y="166" width="104" height="104" rx="24" fill="#c69386" opacity="0.88"/>
    <path d="M696 218 H820 C858 218 858 166 900 166 H966" fill="none" stroke="#0b0b09" stroke-width="4"/>
    <circle cx="820" cy="218" r="10" fill="#0b0b09"/>
    <circle cx="900" cy="166" r="10" fill="#0b0b09"/>
    <rect x="884" y="134" width="92" height="74" rx="18" fill="#f0c7bb" opacity="0.7"/>
    <rect x="884" y="250" width="92" height="74" rx="18" fill="#0b0b09"/>
    <path d="M696 218 H820 C858 218 858 287 884 287" fill="none" stroke="#0b0b09" stroke-width="4"/>
    <rect x="548" y="378" width="410" height="128" rx="24" fill="#141412"/>
    <rect x="594" y="424" width="272" height="12" rx="6" fill="#c69386"/>
    <rect x="594" y="456" width="210" height="12" rx="6" fill="#f0c7bb"/>
  
  </g>
  <rect x="70" y="76" width="232" height="48" rx="24" fill="rgba(255,255,255,0.08)" stroke="#3a3833"/>
  <text x="96" y="107" font-family="Arial, Helvetica, sans-serif" font-size="16" font-weight="700" letter-spacing="3.4" fill="#f0c7bb">FOUNDER LETTER</text>
  <text x="74" y="184" font-family="Georgia, 'Times New Roman', serif" font-size="32" fill="#d9d0c3">DEC 2021</text>
  <text x="72" y="260" font-family="Georgia, 'Times New Roman', serif" font-size="62" font-weight="500" fill="#fbfaf7">Services, products</text>
  <text x="72" y="324" font-family="Georgia, 'Times New Roman', serif" font-size="62" font-weight="500" fill="#fbfaf7">and research separate</text>
  <text x="74" y="536" font-family="Arial, Helvetica, sans-serif" font-size="22" fill="#c8c0b2">Year-end separation of services, products and</text>
  <rect x="1030" y="500" width="74" height="58" rx="0" fill="#191916" stroke="#4d4942" stroke-width="2"/>
  <text x="1048" y="537" font-family="Arial, Helvetica, sans-serif" font-size="25" font-weight="800" fill="#c69386">MS</text>
</svg>
