<svg xmlns="http://www.w3.org/2000/svg" width="1200" height="630" viewBox="0 0 1200 630" role="img" aria-labelledby="title desc">
  <title id="title">Memory and context</title>
  <desc id="desc">Memory and context as product problems</desc>
  
  <defs>
    <radialGradient id="glow" cx="31%" cy="7%" r="80%">
      <stop offset="0%" stop-color="#f2b84b" stop-opacity="0.42"/>
      <stop offset="48%" stop-color="#e7f0f4" stop-opacity="0.9"/>
      <stop offset="100%" stop-color="#e7f0f4"/>
    </radialGradient>
    <linearGradient id="panel" x1="0" y1="0" x2="1" y2="1">
      <stop offset="0%" stop-color="#ffffff" stop-opacity="0.88"/>
      <stop offset="100%" stop-color="#fbfaf7" stop-opacity="0.64"/>
    </linearGradient>
    <filter id="shadow" x="-30%" y="-30%" width="160%" height="160%">
      <feDropShadow dx="0" dy="28" stdDeviation="30" flood-color="#0b0b09" flood-opacity="0.17"/>
    </filter>
    
    <filter id="grain">
      <feTurbulence type="fractalNoise" baseFrequency="0.8" numOctaves="3" stitchTiles="stitch"/>
      <feColorMatrix type="saturate" values="0"/>
      <feComponentTransfer><feFuncA type="table" tableValues="0 0.045"/></feComponentTransfer>
    </filter>
  </defs>
  
      <rect width="1200" height="630" fill="#e7f0f4"/>
      <path d="M0 0V630 M64 0V630 M128 0V630 M192 0V630 M256 0V630 M320 0V630 M384 0V630 M448 0V630 M512 0V630 M576 0V630 M640 0V630 M704 0V630 M768 0V630 M832 0V630 M896 0V630 M960 0V630 M1024 0V630 M1088 0V630 M1152 0V630 M0 0H1200 M0 64H1200 M0 128H1200 M0 192H1200 M0 256H1200 M0 320H1200 M0 384H1200 M0 448H1200 M0 512H1200 M0 576H1200" stroke="#c8c3b7" stroke-width="1" opacity="0.46"/>
      <rect width="1200" height="630" fill="url(#glow)" opacity="0.56"/>
      <rect width="1200" height="630" filter="url(#grain)" opacity="0.75"/>
  
    <rect x="80" y="76" width="1040" height="478" rx="38" fill="url(#glow)"/>
    <rect x="130" y="116" width="156" height="86" rx="22" fill="url(#panel)" stroke="#c8c3b7"/><rect x="340" y="116" width="156" height="86" rx="22" fill="url(#panel)" stroke="#c8c3b7"/><rect x="550" y="116" width="156" height="86" rx="22" fill="url(#panel)" stroke="#c8c3b7"/><rect x="130" y="248" width="156" height="86" rx="22" fill="#f2b84b" stroke="#c8c3b7"/><rect x="340" y="248" width="156" height="86" rx="22" fill="url(#panel)" stroke="#c8c3b7"/><rect x="550" y="248" width="156" height="86" rx="22" fill="url(#panel)" stroke="#c8c3b7"/><rect x="130" y="380" width="156" height="86" rx="22" fill="url(#panel)" stroke="#c8c3b7"/><rect x="340" y="380" width="156" height="86" rx="22" fill="url(#panel)" stroke="#c8c3b7"/><rect x="550" y="380" width="156" height="86" rx="22" fill="url(#panel)" stroke="#c8c3b7"/>
    <path d="M286 158 C432 92 522 318 650 160 S898 120 1042 300" fill="none" stroke="#3977ff" stroke-width="6" opacity="0.76"/>
    <path d="M286 420 C432 350 542 468 706 332 S890 264 1034 412" fill="none" stroke="#0b0b09" stroke-width="4" opacity="0.55"/>
  
  
    <g transform="translate(990 486)">
      <rect width="110" height="74" rx="0" fill="#fbfaf7" stroke="#c8c3b7" stroke-width="2"/>
      <text x="22" y="48" font-family="Arial, Helvetica, sans-serif" font-size="28" font-weight="800" fill="#3977ff">MSG</text>
    </g>
</svg>
