<svg xmlns="http://www.w3.org/2000/svg" width="1200" height="630" viewBox="0 0 1200 630" role="img" aria-labelledby="title desc">
  <title id="title">Commercial execution as software problem</title>
  <desc id="desc">Commercial execution needing software support</desc>
  
  <defs>
    <radialGradient id="glow" cx="62%" cy="-2%" r="80%">
      <stop offset="0%" stop-color="#3977ff" stop-opacity="0.42"/>
      <stop offset="48%" stop-color="#ece9df" stop-opacity="0.9"/>
      <stop offset="100%" stop-color="#ece9df"/>
    </radialGradient>
    <linearGradient id="panel" x1="0" y1="0" x2="1" y2="1">
      <stop offset="0%" stop-color="#ffffff" stop-opacity="0.88"/>
      <stop offset="100%" stop-color="#fbfaf7" stop-opacity="0.64"/>
    </linearGradient>
    <filter id="shadow" x="-30%" y="-30%" width="160%" height="160%">
      <feDropShadow dx="0" dy="28" stdDeviation="30" flood-color="#0b0b09" flood-opacity="0.17"/>
    </filter>
    
    <filter id="grain">
      <feTurbulence type="fractalNoise" baseFrequency="0.81" numOctaves="3" stitchTiles="stitch"/>
      <feColorMatrix type="saturate" values="0"/>
      <feComponentTransfer><feFuncA type="table" tableValues="0 0.081"/></feComponentTransfer>
    </filter>
  </defs>
  
    <rect width="1200" height="630" fill="#ece9df"/>
    <rect width="1200" height="630" fill="url(#glow)" opacity="0.74"/>
    <rect width="1200" height="630" filter="url(#grain)" opacity="0.66"/>
  
    <rect x="92" y="82" width="1016" height="466" rx="36" fill="url(#panel)" stroke="#c8c3b7" filter="url(#shadow)"/>
    <rect x="122" y="112" width="550" height="406" rx="28" fill="#fbfaf7" stroke="#c8c3b7"/>
    <rect x="158" y="146" width="567" height="22" rx="11" fill="#0b0b09" opacity="0.92"/><rect x="158" y="204" width="348" height="22" rx="11" fill="#c8c3b7" opacity="0.7"/><rect x="158" y="262" width="389" height="22" rx="11" fill="#0b0b09" opacity="0.92"/><rect x="158" y="320" width="430" height="22" rx="11" fill="#c8c3b7" opacity="0.7"/><rect x="158" y="378" width="471" height="22" rx="11" fill="#0b0b09" opacity="0.92"/><rect x="158" y="436" width="512" height="22" rx="11" fill="#c8c3b7" opacity="0.7"/>
    <rect x="724" y="132" width="300" height="300" rx="36" fill="#11110f"/>
    <path d="M780 308 C834 228 906 410 974 272" fill="none" stroke="#3977ff" stroke-width="8"/>
    <circle cx="780" cy="308" r="16" fill="#fbfaf7"/><circle cx="974" cy="272" r="16" fill="#0b0b09"/>
  
  
    <g transform="translate(990 486)">
      <rect width="110" height="74" rx="0" fill="#fbfaf7" stroke="#c8c3b7" stroke-width="2"/>
      <text x="22" y="48" font-family="Arial, Helvetica, sans-serif" font-size="28" font-weight="800" fill="#0b0b09">MSG</text>
    </g>
</svg>
