<svg xmlns="http://www.w3.org/2000/svg" width="1200" height="630" viewBox="0 0 1200 630" role="img" aria-labelledby="title desc">
  <title id="title">Clearer divisions across the portfolio</title>
  <desc id="desc">Separating research, products, services and consumer work</desc>
  <rect width="1200" height="630" fill="#e8e6df"/>
  <rect x="36" y="36" width="1128" height="558" fill="#fbfaf7" stroke="#0b0b09" stroke-width="2"/>
  <rect x="72" y="76" width="170" height="46" fill="#c69386" opacity="0.18" stroke="#c69386" stroke-width="1"/>
  <text x="96" y="106" font-family="Arial, Helvetica, sans-serif" font-size="17" font-weight="700" letter-spacing="4" fill="#0b0b09">FOUNDER LETTER</text>
  <text x="72" y="180" font-family="Georgia, 'Times New Roman', serif" font-size="34" fill="#64615b">APR 2022</text>
  <text x="72" y="260" font-family="Georgia, 'Times New Roman', serif" font-size="58" font-weight="500" fill="#0b0b09">Clearer divisions</text>
  <text x="72" y="324" font-family="Georgia, 'Times New Roman', serif" font-size="58" font-weight="500" fill="#0b0b09">across the</text>
  <text x="72" y="388" font-family="Georgia, 'Times New Roman', serif" font-size="58" font-weight="500" fill="#0b0b09">portfolio</text>
  <text x="72" y="535" font-family="Arial, Helvetica, sans-serif" font-size="22" fill="#64615b">Separating research, products, services and</text>
  
    <circle cx="880" cy="315" r="150" fill="none" stroke="#c8c3b7" stroke-width="2"/>
    <path d="M880 455 C775 385 790 235 880 180 C970 235 985 385 880 455Z" fill="#c69386" opacity="0.12" stroke="#c69386" stroke-width="3"/>
    <path d="M880 455 V180" stroke="#0b0b09" stroke-width="2"/>
    <circle cx="880" cy="315" r="16" fill="#0b0b09"/>
    <circle cx="805" cy="370" r="8" fill="#0b0b09"/>
    <circle cx="955" cy="370" r="8" fill="#0b0b09"/>
  
  <line x1="624" y1="94" x2="624" y2="536" stroke="#c8c3b7" stroke-width="1"/>
  <rect x="868" y="498" width="86" height="58" fill="#fbfaf7" stroke="#c8c3b7" stroke-width="2"/>
  <text x="889" y="535" font-family="Arial, Helvetica, sans-serif" font-size="26" font-weight="700" fill="#c69386">MS</text>
</svg>
