<svg xmlns="http://www.w3.org/2000/svg" width="1200" height="630" viewBox="0 0 1200 630" role="img" aria-labelledby="title desc">
  <title id="title">Llama and the open model question</title>
  <desc id="desc">Open-weight models change how builders think about ownership, control and experimentation.</desc>
  
  <defs>
    <radialGradient id="glow" cx="38%" cy="-36%" r="80%">
      <stop offset="0%" stop-color="#ef5da8" stop-opacity="0.42"/>
      <stop offset="48%" stop-color="#e7ecff" stop-opacity="0.9"/>
      <stop offset="100%" stop-color="#e7ecff"/>
    </radialGradient>
    <linearGradient id="panel" x1="0" y1="0" x2="1" y2="1">
      <stop offset="0%" stop-color="#ffffff" stop-opacity="0.88"/>
      <stop offset="100%" stop-color="#fbfaf7" stop-opacity="0.64"/>
    </linearGradient>
    <filter id="shadow" x="-30%" y="-30%" width="160%" height="160%">
      <feDropShadow dx="0" dy="28" stdDeviation="30" flood-color="#0b0b09" flood-opacity="0.17"/>
    </filter>
    
    <filter id="grain">
      <feTurbulence type="fractalNoise" baseFrequency="0.77" numOctaves="3" stitchTiles="stitch"/>
      <feColorMatrix type="saturate" values="0"/>
      <feComponentTransfer><feFuncA type="table" tableValues="0 0.056999999999999995"/></feComponentTransfer>
    </filter>
  </defs>
  
      <rect width="1200" height="630" fill="#e7ecff"/>
      <circle cx="243" cy="102" r="360" fill="#ef5da8" opacity="0.42"/>
      <circle cx="513" cy="220" r="330" fill="#3977ff" opacity="0.26"/>
      <rect width="1200" height="630" fill="url(#glow)" opacity="0.54"/>
      <rect width="1200" height="630" filter="url(#grain)" opacity="0.8"/>
  
      <rect x="82" y="70" width="1036" height="490" rx="44" fill="url(#glow)" filter="url(#shadow)"/>
      <path d="M120 428 C288 218 402 502 564 256 S862 66 1084 330" fill="none" stroke="#3977ff" stroke-width="14" opacity="0.55"/>
      <path d="M168 214 C338 96 420 314 584 226 S836 132 1010 214" fill="none" stroke="#fbfaf7" stroke-width="9" opacity="0.76"/>
      <rect x="263" y="-176" width="34" height="18" rx="9" fill="#ef5da8" opacity="0.18"/><rect x="330" y="-129" width="62" height="28" rx="9" fill="#0b0b09" opacity="0.31"/><rect x="397" y="-82" width="90" height="38" rx="9" fill="#ef5da8" opacity="0.44"/><rect x="464" y="-35" width="118" height="18" rx="9" fill="#0b0b09" opacity="0.5700000000000001"/><rect x="531" y="12" width="34" height="28" rx="9" fill="#ef5da8" opacity="0.7"/><rect x="598" y="59" width="62" height="38" rx="9" fill="#0b0b09" opacity="0.18"/><rect x="665" y="106" width="90" height="18" rx="9" fill="#ef5da8" opacity="0.31"/><rect x="732" y="-207" width="118" height="28" rx="9" fill="#0b0b09" opacity="0.44"/><rect x="799" y="-160" width="34" height="38" rx="9" fill="#ef5da8" opacity="0.5700000000000001"/><rect x="866" y="-113" width="62" height="18" rx="9" fill="#0b0b09" opacity="0.7"/><rect x="933" y="-66" width="90" height="28" rx="9" fill="#ef5da8" opacity="0.18"/><rect x="1000" y="-19" width="118" height="38" rx="9" fill="#0b0b09" opacity="0.31"/><rect x="197" y="28" width="34" height="18" rx="9" fill="#ef5da8" opacity="0.44"/><rect x="264" y="75" width="62" height="28" rx="9" fill="#0b0b09" opacity="0.5700000000000001"/><rect x="331" y="-238" width="90" height="38" rx="9" fill="#ef5da8" opacity="0.7"/><rect x="398" y="-191" width="118" height="18" rx="9" fill="#0b0b09" opacity="0.18"/><rect x="465" y="-144" width="34" height="28" rx="9" fill="#ef5da8" opacity="0.31"/><rect x="532" y="-97" width="62" height="38" rx="9" fill="#0b0b09" opacity="0.44"/><rect x="599" y="-50" width="90" height="18" rx="9" fill="#ef5da8" opacity="0.5700000000000001"/><rect x="666" y="-3" width="118" height="28" rx="9" fill="#0b0b09" opacity="0.7"/><rect x="733" y="44" width="34" height="38" rx="9" fill="#ef5da8" opacity="0.18"/><rect x="800" y="91" width="62" height="18" rx="9" fill="#0b0b09" opacity="0.31"/>
    
  
    <g transform="translate(990 486)">
      <rect width="110" height="74" rx="0" fill="#fbfaf7" stroke="#c8c3b7" stroke-width="2"/>
      <text x="22" y="48" font-family="Arial, Helvetica, sans-serif" font-size="28" font-weight="800" fill="#3977ff">MSG</text>
    </g>
</svg>
