<svg xmlns="http://www.w3.org/2000/svg" width="1200" height="630" viewBox="0 0 1200 630" role="img" aria-labelledby="title desc">
  <title id="title">Public examples, protected systems</title>
  <desc id="desc">Safe public examples without exposing protected implementation</desc>
  
    <defs>
      <linearGradient id="backgroundGradient" x1="0" y1="0" x2="1" y2="1">
        <stop offset="0%" stop-color="#e8e6df"/>
        <stop offset="58%" stop-color="#e8e6df"/>
        <stop offset="100%" stop-color="#f0c7bb"/>
      </linearGradient>
      <radialGradient id="fieldGradient" cx="68%" cy="42%" r="70%">
        <stop offset="0%" stop-color="#4f7cff" stop-opacity="0.92"/>
        <stop offset="55%" stop-color="#0b0b09" stop-opacity="0.54"/>
        <stop offset="100%" stop-color="#cf6f5f" stop-opacity="0.86"/>
      </radialGradient>
      <linearGradient id="waveGradient" x1="0" y1="0" x2="1" y2="1">
        <stop offset="0%" stop-color="#0b0b09"/>
        <stop offset="50%" stop-color="#f0c7bb"/>
        <stop offset="100%" stop-color="#c69386"/>
      </linearGradient>
      <filter id="softShadow" x="-20%" y="-20%" width="140%" height="140%">
        <feDropShadow dx="0" dy="28" stdDeviation="26" flood-color="#0b0b09" flood-opacity="0.18"/>
      </filter>
    </defs>
  
  <rect width="1200" height="630" fill="url(#backgroundGradient)"/>
  <rect x="34" y="34" width="1132" height="562" rx="0" fill="#11110f" stroke="#3a3833" stroke-width="2"/>
  <circle cx="865" cy="223" r="275" fill="#0b0b09" opacity="0.18"/>
  <circle cx="1015" cy="395" r="155" fill="#c69386" opacity="0.16"/>
  <g filter="url(#softShadow)">
    
    <circle cx="850" cy="316" r="218" fill="none" stroke="#f0c7bb" stroke-width="3"/>
    <circle cx="850" cy="316" r="132" fill="none" stroke="#c8c3b7" stroke-width="3"/>
    <path d="M642 316 C720 128 982 128 1060 316 C982 504 720 504 642 316Z" fill="none" stroke="#c69386" stroke-width="5" opacity="0.76"/>
    <path d="M850 112 C960 210 958 418 850 520 C742 418 740 210 850 112Z" fill="none" stroke="#0b0b09" stroke-width="4" opacity="0.72"/>
    <circle cx="850" cy="316" r="28" fill="#fbfaf7" stroke="#0b0b09" stroke-width="4"/>
    <circle cx="642" cy="316" r="14" fill="#0b0b09"/>
    <circle cx="1060" cy="316" r="14" fill="#0b0b09"/>
    <circle cx="850" cy="112" r="12" fill="#0b0b09"/>
  
  </g>
  <rect x="70" y="76" width="232" height="48" rx="24" fill="rgba(255,255,255,0.08)" stroke="#3a3833"/>
  <text x="96" y="107" font-family="Arial, Helvetica, sans-serif" font-size="16" font-weight="700" letter-spacing="3.4" fill="#f0c7bb">FOUNDER LETTER</text>
  <text x="74" y="184" font-family="Georgia, 'Times New Roman', serif" font-size="32" fill="#d9d0c3">OCT 2024</text>
  <text x="72" y="260" font-family="Georgia, 'Times New Roman', serif" font-size="62" font-weight="500" fill="#fbfaf7">Public examples,</text>
  <text x="72" y="324" font-family="Georgia, 'Times New Roman', serif" font-size="62" font-weight="500" fill="#fbfaf7">protected systems</text>
  <text x="74" y="536" font-family="Arial, Helvetica, sans-serif" font-size="22" fill="#c8c0b2">Safe public examples without exposing protected</text>
  <rect x="1030" y="500" width="74" height="58" rx="0" fill="#191916" stroke="#4d4942" stroke-width="2"/>
  <text x="1048" y="537" font-family="Arial, Helvetica, sans-serif" font-size="25" font-weight="800" fill="#c69386">MS</text>
</svg>
