<svg xmlns="http://www.w3.org/2000/svg" width="1200" height="630" viewBox="0 0 1200 630" role="img" aria-labelledby="title desc">
  <title id="title">A connected ecosystem</title>
  <desc id="desc">Why the companies belong together</desc>
  
    <defs>
      <linearGradient id="backgroundGradient" x1="0" y1="0" x2="1" y2="1">
        <stop offset="0%" stop-color="#e6edff"/>
        <stop offset="58%" stop-color="#e8e6df"/>
        <stop offset="100%" stop-color="#f0c7bb"/>
      </linearGradient>
      <radialGradient id="fieldGradient" cx="68%" cy="42%" r="70%">
        <stop offset="0%" stop-color="#ffd06f" stop-opacity="0.92"/>
        <stop offset="55%" stop-color="#0b0b09" stop-opacity="0.54"/>
        <stop offset="100%" stop-color="#7b61ff" stop-opacity="0.86"/>
      </radialGradient>
      <linearGradient id="waveGradient" x1="0" y1="0" x2="1" y2="1">
        <stop offset="0%" stop-color="#0b0b09"/>
        <stop offset="50%" stop-color="#f0c7bb"/>
        <stop offset="100%" stop-color="#c69386"/>
      </linearGradient>
      <filter id="softShadow" x="-20%" y="-20%" width="140%" height="140%">
        <feDropShadow dx="0" dy="28" stdDeviation="26" flood-color="#0b0b09" flood-opacity="0.18"/>
      </filter>
    </defs>
  
  <rect width="1200" height="630" fill="url(#backgroundGradient)"/>
  <rect x="34" y="34" width="1132" height="562" rx="0" fill="rgba(251,250,247,0.76)" stroke="#c8c3b7" stroke-width="2"/>
  <circle cx="973" cy="255" r="227" fill="#0b0b09" opacity="0.18"/>
  <circle cx="927" cy="383" r="197" fill="#c69386" opacity="0.16"/>
  <g filter="url(#softShadow)">
    <g><rect x="640" y="124" width="34" height="34" rx="9" fill="transparent" opacity="0.08" stroke="#c8c3b7"/><rect x="686" y="124" width="34" height="34" rx="9" fill="#c69386" opacity="0.86" stroke="none"/><rect x="732" y="124" width="34" height="34" rx="9" fill="transparent" opacity="0.08" stroke="#c8c3b7"/><rect x="778" y="124" width="34" height="34" rx="9" fill="transparent" opacity="0.08" stroke="#c8c3b7"/><rect x="824" y="124" width="34" height="34" rx="9" fill="transparent" opacity="0.08" stroke="#c8c3b7"/><rect x="870" y="124" width="34" height="34" rx="9" fill="transparent" opacity="0.08" stroke="#c8c3b7"/><rect x="916" y="124" width="34" height="34" rx="9" fill="transparent" opacity="0.08" stroke="#c8c3b7"/><rect x="962" y="124" width="34" height="34" rx="9" fill="transparent" opacity="0.08" stroke="#c8c3b7"/><rect x="1008" y="124" width="34" height="34" rx="9" fill="#0b0b09" opacity="0.86" stroke="none"/><rect x="1054" y="124" width="34" height="34" rx="9" fill="transparent" opacity="0.08" stroke="#c8c3b7"/><rect x="640" y="170" width="34" height="34" rx="9" fill="#0b0b09" opacity="0.86" stroke="none"/><rect x="686" y="170" width="34" height="34" rx="9" fill="transparent" opacity="0.08" stroke="#c8c3b7"/><rect x="732" y="170" width="34" height="34" rx="9" fill="transparent" opacity="0.08" stroke="#c8c3b7"/><rect x="778" y="170" width="34" height="34" rx="9" fill="transparent" opacity="0.08" stroke="#c8c3b7"/><rect x="824" y="170" width="34" height="34" rx="9" fill="transparent" opacity="0.08" stroke="#c8c3b7"/><rect x="870" y="170" width="34" height="34" rx="9" fill="#c69386" opacity="0.86" stroke="none"/><rect x="916" y="170" width="34" height="34" rx="9" fill="transparent" opacity="0.08" stroke="#c8c3b7"/><rect x="962" y="170" width="34" height="34" rx="9" fill="transparent" opacity="0.08" stroke="#c8c3b7"/><rect x="1008" y="170" width="34" height="34" rx="9" fill="transparent" opacity="0.08" stroke="#c8c3b7"/><rect x="1054" y="170" width="34" height="34" rx="9" fill="transparent" opacity="0.08" stroke="#c8c3b7"/><rect x="640" y="216" width="34" height="34" rx="9" fill="transparent" opacity="0.08" stroke="#c8c3b7"/><rect x="686" y="216" width="34" height="34" rx="9" fill="#c69386" opacity="0.86" stroke="none"/><rect x="732" y="216" width="34" height="34" rx="9" fill="#0b0b09" opacity="0.86" stroke="none"/><rect x="778" y="216" width="34" height="34" rx="9" fill="transparent" opacity="0.08" stroke="#c8c3b7"/><rect x="824" y="216" width="34" height="34" rx="9" fill="transparent" opacity="0.08" stroke="#c8c3b7"/><rect x="870" y="216" width="34" height="34" rx="9" fill="transparent" opacity="0.08" stroke="#c8c3b7"/><rect x="916" y="216" width="34" height="34" rx="9" fill="transparent" opacity="0.08" stroke="#c8c3b7"/><rect x="962" y="216" width="34" height="34" rx="9" fill="transparent" opacity="0.08" stroke="#c8c3b7"/><rect x="1008" y="216" width="34" height="34" rx="9" fill="transparent" opacity="0.08" stroke="#c8c3b7"/><rect x="1054" y="216" width="34" height="34" rx="9" fill="#c69386" opacity="0.86" stroke="none"/><rect x="640" y="262" width="34" height="34" rx="9" fill="transparent" opacity="0.08" stroke="#c8c3b7"/><rect x="686" y="262" width="34" height="34" rx="9" fill="transparent" opacity="0.08" stroke="#c8c3b7"/><rect x="732" y="262" width="34" height="34" rx="9" fill="#0b0b09" opacity="0.86" stroke="none"/><rect x="778" y="262" width="34" height="34" rx="9" fill="transparent" opacity="0.08" stroke="#c8c3b7"/><rect x="824" y="262" width="34" height="34" rx="9" fill="transparent" opacity="0.08" stroke="#c8c3b7"/><rect x="870" y="262" width="34" height="34" rx="9" fill="transparent" opacity="0.08" stroke="#c8c3b7"/><rect x="916" y="262" width="34" height="34" rx="9" fill="#0b0b09" opacity="0.86" stroke="none"/><rect x="962" y="262" width="34" height="34" rx="9" fill="transparent" opacity="0.08" stroke="#c8c3b7"/><rect x="1008" y="262" width="34" height="34" rx="9" fill="transparent" opacity="0.08" stroke="#c8c3b7"/><rect x="1054" y="262" width="34" height="34" rx="9" fill="transparent" opacity="0.08" stroke="#c8c3b7"/><rect x="640" y="308" width="34" height="34" rx="9" fill="transparent" opacity="0.08" stroke="#c8c3b7"/><rect x="686" y="308" width="34" height="34" rx="9" fill="transparent" opacity="0.08" stroke="#c8c3b7"/><rect x="732" y="308" width="34" height="34" rx="9" fill="transparent" opacity="0.08" stroke="#c8c3b7"/><rect x="778" y="308" width="34" height="34" rx="9" fill="#c69386" opacity="0.86" stroke="none"/><rect x="824" y="308" width="34" height="34" rx="9" fill="transparent" opacity="0.08" stroke="#c8c3b7"/><rect x="870" y="308" width="34" height="34" rx="9" fill="transparent" opacity="0.08" stroke="#c8c3b7"/><rect x="916" y="308" width="34" height="34" rx="9" fill="transparent" opacity="0.08" stroke="#c8c3b7"/><rect x="962" y="308" width="34" height="34" rx="9" fill="transparent" opacity="0.08" stroke="#c8c3b7"/><rect x="1008" y="308" width="34" height="34" rx="9" fill="transparent" opacity="0.08" stroke="#c8c3b7"/><rect x="1054" y="308" width="34" height="34" rx="9" fill="transparent" opacity="0.08" stroke="#c8c3b7"/><rect x="640" y="354" width="34" height="34" rx="9" fill="#0b0b09" opacity="0.86" stroke="none"/><rect x="686" y="354" width="34" height="34" rx="9" fill="transparent" opacity="0.08" stroke="#c8c3b7"/><rect x="732" y="354" width="34" height="34" rx="9" fill="transparent" opacity="0.08" stroke="#c8c3b7"/><rect x="778" y="354" width="34" height="34" rx="9" fill="transparent" opacity="0.08" stroke="#c8c3b7"/><rect x="824" y="354" width="34" height="34" rx="9" fill="#0b0b09" opacity="0.86" stroke="none"/><rect x="870" y="354" width="34" height="34" rx="9" fill="transparent" opacity="0.08" stroke="#c8c3b7"/><rect x="916" y="354" width="34" height="34" rx="9" fill="transparent" opacity="0.08" stroke="#c8c3b7"/><rect x="962" y="354" width="34" height="34" rx="9" fill="#c69386" opacity="0.86" stroke="none"/><rect x="1008" y="354" width="34" height="34" rx="9" fill="transparent" opacity="0.08" stroke="#c8c3b7"/><rect x="1054" y="354" width="34" height="34" rx="9" fill="transparent" opacity="0.08" stroke="#c8c3b7"/></g><rect x="742" y="242" width="250" height="150" rx="30" fill="#fbfaf7" stroke="#0b0b09" stroke-width="4"/><text x="810" y="332" font-family="Arial, Helvetica, sans-serif" font-size="46" font-weight="800" fill="#c69386">MS</text>
  </g>
  <rect x="70" y="76" width="232" height="48" rx="24" fill="rgba(255,255,255,0.72)" stroke="#c8c3b7"/>
  <text x="96" y="107" font-family="Arial, Helvetica, sans-serif" font-size="16" font-weight="700" letter-spacing="3.4" fill="#0b0b09">FOUNDER LETTER</text>
  <text x="74" y="184" font-family="Georgia, 'Times New Roman', serif" font-size="32" fill="#706c64">NOV 2024</text>
  <text x="72" y="260" font-family="Georgia, 'Times New Roman', serif" font-size="62" font-weight="500" fill="#0b0b09">A connected ecosystem</text>
  <text x="74" y="536" font-family="Arial, Helvetica, sans-serif" font-size="22" fill="#706c64">Why the companies belong together</text>
  <rect x="1030" y="500" width="74" height="58" rx="0" fill="#fbfaf7" stroke="#c8c3b7" stroke-width="2"/>
  <text x="1048" y="537" font-family="Arial, Helvetica, sans-serif" font-size="25" font-weight="800" fill="#c69386">MS</text>
</svg>
