<svg xmlns="http://www.w3.org/2000/svg" width="1200" height="630" viewBox="0 0 1200 630" role="img" aria-labelledby="title desc">
  <title id="title">Orbit as a business operating system</title>
  <desc id="desc">Orbit as the business execution surface</desc>
  
  <defs>
    <radialGradient id="glow" cx="60%" cy="23%" r="80%">
      <stop offset="0%" stop-color="#3977ff" stop-opacity="0.42"/>
      <stop offset="48%" stop-color="#ece9df" stop-opacity="0.9"/>
      <stop offset="100%" stop-color="#ece9df"/>
    </radialGradient>
    <linearGradient id="panel" x1="0" y1="0" x2="1" y2="1">
      <stop offset="0%" stop-color="#ffffff" stop-opacity="0.88"/>
      <stop offset="100%" stop-color="#fbfaf7" stop-opacity="0.64"/>
    </linearGradient>
    <filter id="shadow" x="-30%" y="-30%" width="160%" height="160%">
      <feDropShadow dx="0" dy="28" stdDeviation="30" flood-color="#0b0b09" flood-opacity="0.17"/>
    </filter>
    
    <filter id="grain">
      <feTurbulence type="fractalNoise" baseFrequency="0.79" numOctaves="3" stitchTiles="stitch"/>
      <feColorMatrix type="saturate" values="0"/>
      <feComponentTransfer><feFuncA type="table" tableValues="0 0.056999999999999995"/></feComponentTransfer>
    </filter>
  </defs>
  
    <rect width="1200" height="630" fill="#ece9df"/>
    <rect width="1200" height="630" fill="url(#glow)" opacity="0.74"/>
    <rect width="1200" height="630" filter="url(#grain)" opacity="0.66"/>
  
      <rect x="86" y="78" width="1028" height="474" rx="40" fill="#11110f" filter="url(#shadow)"/>
      <rect x="146" y="136" width="408" height="300" rx="30" fill="#fbfaf7"/>
      <rect x="626" y="136" width="390" height="300" rx="30" fill="#3977ff" opacity="0.92"/>
      <rect x="190" y="188" width="205" height="16" rx="8" fill="#0b0b09" opacity="0.86"/><rect x="190" y="236" width="234" height="16" rx="8" fill="#0b0b09" opacity="0.42"/><rect x="190" y="284" width="263" height="16" rx="8" fill="#0b0b09" opacity="0.86"/><rect x="190" y="332" width="292" height="16" rx="8" fill="#0b0b09" opacity="0.42"/><rect x="190" y="380" width="321" height="16" rx="8" fill="#0b0b09" opacity="0.86"/>
      <path d="M690 344 C760 228 846 408 956 256" stroke="#fbfaf7" stroke-width="10" fill="none"/>
    
  
    <g transform="translate(990 486)">
      <rect width="110" height="74" rx="0" fill="#fbfaf7" stroke="#c8c3b7" stroke-width="2"/>
      <text x="22" y="48" font-family="Arial, Helvetica, sans-serif" font-size="28" font-weight="800" fill="#0b0b09">MSG</text>
    </g>
</svg>
