<svg xmlns="http://www.w3.org/2000/svg" width="1200" height="630" viewBox="0 0 1200 630" role="img" aria-labelledby="title desc">
  <title id="title">Productising research safely</title>
  <desc id="desc">Turning research into product without exposing the moat</desc>
  
  <defs>
    <radialGradient id="glow" cx="34%" cy="-15%" r="80%">
      <stop offset="0%" stop-color="#3977ff" stop-opacity="0.42"/>
      <stop offset="48%" stop-color="#eee9df" stop-opacity="0.9"/>
      <stop offset="100%" stop-color="#eee9df"/>
    </radialGradient>
    <linearGradient id="panel" x1="0" y1="0" x2="1" y2="1">
      <stop offset="0%" stop-color="#ffffff" stop-opacity="0.88"/>
      <stop offset="100%" stop-color="#fbfaf7" stop-opacity="0.64"/>
    </linearGradient>
    <filter id="shadow" x="-30%" y="-30%" width="160%" height="160%">
      <feDropShadow dx="0" dy="28" stdDeviation="30" flood-color="#0b0b09" flood-opacity="0.17"/>
    </filter>
    
    <filter id="grain">
      <feTurbulence type="fractalNoise" baseFrequency="0.83" numOctaves="3" stitchTiles="stitch"/>
      <feColorMatrix type="saturate" values="0"/>
      <feComponentTransfer><feFuncA type="table" tableValues="0 0.081"/></feComponentTransfer>
    </filter>
  </defs>
  
      <rect width="1200" height="630" fill="#eee9df"/>
      <path d="M0 0V630 M67 0V630 M134 0V630 M201 0V630 M268 0V630 M335 0V630 M402 0V630 M469 0V630 M536 0V630 M603 0V630 M670 0V630 M737 0V630 M804 0V630 M871 0V630 M938 0V630 M1005 0V630 M1072 0V630 M1139 0V630 M0 0H1200 M0 67H1200 M0 134H1200 M0 201H1200 M0 268H1200 M0 335H1200 M0 402H1200 M0 469H1200 M0 536H1200 M0 603H1200" stroke="#c8c3b7" stroke-width="1" opacity="0.46"/>
      <rect width="1200" height="630" fill="url(#glow)" opacity="0.56"/>
      <rect width="1200" height="630" filter="url(#grain)" opacity="0.75"/>
  
    <rect x="132" y="134" width="936" height="312" rx="36" fill="url(#panel)" stroke="#c8c3b7" filter="url(#shadow)"/>
    <circle cx="308" cy="290" r="92" fill="none" stroke="#c69386" stroke-width="8"/>
    <path d="M258 290 H358 M308 240 V340" stroke="#3977ff" stroke-width="7"/>
    <rect x="500" y="210" width="420" height="28" rx="14" fill="#0b0b09" opacity="0.82"/>
    <rect x="500" y="278" width="300" height="28" rx="14" fill="#c69386" opacity="0.82"/>
    <rect x="500" y="346" width="360" height="28" rx="14" fill="#3977ff" opacity="0.82"/>
  
  
    <g transform="translate(990 486)">
      <rect width="110" height="74" rx="0" fill="#fbfaf7" stroke="#c8c3b7" stroke-width="2"/>
      <text x="22" y="48" font-family="Arial, Helvetica, sans-serif" font-size="28" font-weight="800" fill="#c69386">MSG</text>
    </g>
</svg>
