<svg xmlns="http://www.w3.org/2000/svg" width="1200" height="630" viewBox="0 0 1200 630" role="img" aria-labelledby="title desc">
  <title id="title">Orbit and Orion</title>
  <desc id="desc">Product plus intelligence layer</desc>
  
  <defs>
    <radialGradient id="glow" cx="63%" cy="4%" r="80%">
      <stop offset="0%" stop-color="#ff4f64" stop-opacity="0.42"/>
      <stop offset="48%" stop-color="#edf0f6" stop-opacity="0.9"/>
      <stop offset="100%" stop-color="#edf0f6"/>
    </radialGradient>
    <linearGradient id="panel" x1="0" y1="0" x2="1" y2="1">
      <stop offset="0%" stop-color="#ffffff" stop-opacity="0.88"/>
      <stop offset="100%" stop-color="#fbfaf7" stop-opacity="0.64"/>
    </linearGradient>
    <filter id="shadow" x="-30%" y="-30%" width="160%" height="160%">
      <feDropShadow dx="0" dy="28" stdDeviation="30" flood-color="#0b0b09" flood-opacity="0.17"/>
    </filter>
    
    <filter id="grain">
      <feTurbulence type="fractalNoise" baseFrequency="0.82" numOctaves="3" stitchTiles="stitch"/>
      <feColorMatrix type="saturate" values="0"/>
      <feComponentTransfer><feFuncA type="table" tableValues="0 0.045"/></feComponentTransfer>
    </filter>
  </defs>
  
      <rect width="1200" height="630" fill="#0b0b09"/>
      <rect width="1200" height="630" fill="url(#glow)" opacity="0.42"/>
      <rect width="1200" height="630" filter="url(#grain)" opacity="0.7"/>
  
      <rect x="108" y="86" width="984" height="458" rx="38" fill="url(#glow)" filter="url(#shadow)"/>
      <circle cx="600" cy="315" r="136" fill="#fbfaf7" opacity="0.88"/>
      <path d="M600 315 L876.3 381.2" stroke="#0b0b09" stroke-width="3" opacity="0.34"/><circle cx="876.3" cy="381.2" r="26" fill="#ff4f64" opacity="0.86"/><path d="M600 315 L712.8 472.5" stroke="#0b0b09" stroke-width="3" opacity="0.34"/><circle cx="712.8" cy="472.5" r="34" fill="#3977ff" opacity="0.86"/><path d="M600 315 L483.2 471.6" stroke="#0b0b09" stroke-width="3" opacity="0.34"/><circle cx="483.2" cy="471.6" r="42" fill="#ff4f64" opacity="0.86"/><path d="M600 315 L322.0 378.9" stroke="#0b0b09" stroke-width="3" opacity="0.34"/><circle cx="322.0" cy="378.9" r="26" fill="#3977ff" opacity="0.86"/><path d="M600 315 L323.7 248.8" stroke="#0b0b09" stroke-width="3" opacity="0.34"/><circle cx="323.7" cy="248.8" r="34" fill="#ff4f64" opacity="0.86"/><path d="M600 315 L487.2 157.5" stroke="#0b0b09" stroke-width="3" opacity="0.34"/><circle cx="487.2" cy="157.5" r="42" fill="#3977ff" opacity="0.86"/><path d="M600 315 L716.8 158.4" stroke="#0b0b09" stroke-width="3" opacity="0.34"/><circle cx="716.8" cy="158.4" r="26" fill="#ff4f64" opacity="0.86"/><path d="M600 315 L878.0 251.1" stroke="#0b0b09" stroke-width="3" opacity="0.34"/><circle cx="878.0" cy="251.1" r="34" fill="#3977ff" opacity="0.86"/>
      <circle cx="600" cy="315" r="42" fill="#11110f"/>
    
  
    <g transform="translate(990 486)">
      <rect width="110" height="74" rx="0" fill="#fbfaf7" stroke="#c8c3b7" stroke-width="2"/>
      <text x="22" y="48" font-family="Arial, Helvetica, sans-serif" font-size="28" font-weight="800" fill="#3977ff">MSG</text>
    </g>
</svg>
