<svg xmlns="http://www.w3.org/2000/svg" width="1200" height="630" viewBox="0 0 1200 630" role="img" aria-labelledby="title desc">
  <title id="title">Benediction Lab and research credibility</title>
  <desc id="desc">Research as a credibility layer</desc>
  
  <defs>
    <radialGradient id="glow" cx="34%" cy="-18%" r="80%">
      <stop offset="0%" stop-color="#3977ff" stop-opacity="0.42"/>
      <stop offset="48%" stop-color="#eee9df" stop-opacity="0.9"/>
      <stop offset="100%" stop-color="#eee9df"/>
    </radialGradient>
    <linearGradient id="panel" x1="0" y1="0" x2="1" y2="1">
      <stop offset="0%" stop-color="#ffffff" stop-opacity="0.88"/>
      <stop offset="100%" stop-color="#fbfaf7" stop-opacity="0.64"/>
    </linearGradient>
    <filter id="shadow" x="-30%" y="-30%" width="160%" height="160%">
      <feDropShadow dx="0" dy="28" stdDeviation="30" flood-color="#0b0b09" flood-opacity="0.17"/>
    </filter>
    
    <filter id="grain">
      <feTurbulence type="fractalNoise" baseFrequency="0.83" numOctaves="3" stitchTiles="stitch"/>
      <feColorMatrix type="saturate" values="0"/>
      <feComponentTransfer><feFuncA type="table" tableValues="0 0.081"/></feComponentTransfer>
    </filter>
  </defs>
  
      <rect width="1200" height="630" fill="#eee9df"/>
      <path d="M0 0V630 M59 0V630 M118 0V630 M177 0V630 M236 0V630 M295 0V630 M354 0V630 M413 0V630 M472 0V630 M531 0V630 M590 0V630 M649 0V630 M708 0V630 M767 0V630 M826 0V630 M885 0V630 M944 0V630 M1003 0V630 M1062 0V630 M1121 0V630 M1180 0V630 M0 0H1200 M0 59H1200 M0 118H1200 M0 177H1200 M0 236H1200 M0 295H1200 M0 354H1200 M0 413H1200 M0 472H1200 M0 531H1200 M0 590H1200" stroke="#c8c3b7" stroke-width="1" opacity="0.46"/>
      <rect width="1200" height="630" fill="url(#glow)" opacity="0.56"/>
      <rect width="1200" height="630" filter="url(#grain)" opacity="0.75"/>
  
      <rect x="96" y="90" width="1008" height="450" rx="38" fill="#fbfaf7" filter="url(#shadow)"/>
      <path d="M158 420 H1046" stroke="#0b0b09" stroke-width="5"/>
      <circle cx="294" cy="254" r="78" fill="none" stroke="#c69386" stroke-width="8"/>
      <circle cx="514" cy="254" r="78" fill="none" stroke="#3977ff" stroke-width="8"/>
      <circle cx="734" cy="254" r="78" fill="none" stroke="#0b0b09" stroke-width="8" opacity="0.42"/>
      <path d="M860 184 H1012 M860 246 H964 M860 308 H1028" stroke="#0b0b09" stroke-width="14" stroke-linecap="round" opacity="0.54"/>
    
  
    <g transform="translate(990 486)">
      <rect width="110" height="74" rx="0" fill="#fbfaf7" stroke="#c8c3b7" stroke-width="2"/>
      <text x="22" y="48" font-family="Arial, Helvetica, sans-serif" font-size="28" font-weight="800" fill="#c69386">MSG</text>
    </g>
</svg>
