<svg xmlns="http://www.w3.org/2000/svg" width="1200" height="630" viewBox="0 0 1200 630" role="img" aria-labelledby="title desc">
  <title id="title">Content as institutional memory</title>
  <desc id="desc">Updates as institutional memory</desc>
  
  <defs>
    <radialGradient id="glow" cx="70%" cy="-24%" r="80%">
      <stop offset="0%" stop-color="#f2b84b" stop-opacity="0.42"/>
      <stop offset="48%" stop-color="#e7f0f4" stop-opacity="0.9"/>
      <stop offset="100%" stop-color="#e7f0f4"/>
    </radialGradient>
    <linearGradient id="panel" x1="0" y1="0" x2="1" y2="1">
      <stop offset="0%" stop-color="#ffffff" stop-opacity="0.88"/>
      <stop offset="100%" stop-color="#fbfaf7" stop-opacity="0.64"/>
    </linearGradient>
    <filter id="shadow" x="-30%" y="-30%" width="160%" height="160%">
      <feDropShadow dx="0" dy="28" stdDeviation="30" flood-color="#0b0b09" flood-opacity="0.17"/>
    </filter>
    
    <filter id="grain">
      <feTurbulence type="fractalNoise" baseFrequency="0.79" numOctaves="3" stitchTiles="stitch"/>
      <feColorMatrix type="saturate" values="0"/>
      <feComponentTransfer><feFuncA type="table" tableValues="0 0.056999999999999995"/></feComponentTransfer>
    </filter>
  </defs>
  
      <rect width="1200" height="630" fill="#e7f0f4"/>
      <path d="M0 0V630 M53 0V630 M106 0V630 M159 0V630 M212 0V630 M265 0V630 M318 0V630 M371 0V630 M424 0V630 M477 0V630 M530 0V630 M583 0V630 M636 0V630 M689 0V630 M742 0V630 M795 0V630 M848 0V630 M901 0V630 M954 0V630 M1007 0V630 M1060 0V630 M1113 0V630 M1166 0V630 M0 0H1200 M0 53H1200 M0 106H1200 M0 159H1200 M0 212H1200 M0 265H1200 M0 318H1200 M0 371H1200 M0 424H1200 M0 477H1200 M0 530H1200 M0 583H1200" stroke="#c8c3b7" stroke-width="1" opacity="0.46"/>
      <rect width="1200" height="630" fill="url(#glow)" opacity="0.56"/>
      <rect width="1200" height="630" filter="url(#grain)" opacity="0.75"/>
  
      <rect x="90" y="78" width="1020" height="474" rx="42" fill="#fbfaf7" filter="url(#shadow)"/>
      <circle cx="813" cy="-102" r="18" fill="#3977ff" opacity="0.18"/><circle cx="910" cy="-41" r="30" fill="#f2b84b" opacity="0.28"/><circle cx="1007" cy="20" r="42" fill="#0b0b09" opacity="0.38"/><circle cx="254" cy="81" r="54" fill="#3977ff" opacity="0.48000000000000004"/><circle cx="351" cy="-218" r="18" fill="#f2b84b" opacity="0.5800000000000001"/><circle cx="448" cy="-157" r="30" fill="#0b0b09" opacity="0.18"/><circle cx="545" cy="-96" r="42" fill="#3977ff" opacity="0.28"/><circle cx="642" cy="-35" r="54" fill="#f2b84b" opacity="0.38"/><circle cx="739" cy="26" r="18" fill="#0b0b09" opacity="0.48000000000000004"/><circle cx="836" cy="87" r="30" fill="#3977ff" opacity="0.5800000000000001"/><circle cx="933" cy="-212" r="42" fill="#f2b84b" opacity="0.18"/><circle cx="180" cy="-151" r="54" fill="#0b0b09" opacity="0.28"/><circle cx="277" cy="-90" r="18" fill="#3977ff" opacity="0.38"/><circle cx="374" cy="-29" r="30" fill="#f2b84b" opacity="0.48000000000000004"/><circle cx="471" cy="32" r="42" fill="#0b0b09" opacity="0.5800000000000001"/><circle cx="568" cy="93" r="54" fill="#3977ff" opacity="0.18"/>
      <path d="M166 444 C274 312 388 402 504 246 S768 126 1006 218" stroke="#3977ff" stroke-width="7" fill="none"/>
      <path d="M210 192 C378 276 496 126 650 232 S850 404 1034 308" stroke="#f2b84b" stroke-width="7" fill="none" opacity="0.8"/>
    
  
    <g transform="translate(990 486)">
      <rect width="110" height="74" rx="0" fill="#fbfaf7" stroke="#c8c3b7" stroke-width="2"/>
      <text x="22" y="48" font-family="Arial, Helvetica, sans-serif" font-size="28" font-weight="800" fill="#3977ff">MSG</text>
    </g>
</svg>
